<?xml version="1.0" encoding="UTF-8" standalone="no"?>
<svg
   id="Layer_1"
   version="1.1"
   viewBox="0 0 1920 1080"
   sodipodi:docname="background-fd.svg"
   inkscape:version="1.4.2 (ebf0e940, 2025-05-08)"
   xmlns:inkscape="http://www.inkscape.org/namespaces/inkscape"
   xmlns:sodipodi="http://sodipodi.sourceforge.net/DTD/sodipodi-0.dtd"
   xmlns="http://www.w3.org/2000/svg"
   xmlns:svg="http://www.w3.org/2000/svg">
  <sodipodi:namedview
     id="namedview68"
     pagecolor="#ffffff"
     bordercolor="#000000"
     borderopacity="0.25"
     inkscape:showpageshadow="2"
     inkscape:pageopacity="0.0"
     inkscape:pagecheckerboard="0"
     inkscape:deskcolor="#d1d1d1"
     inkscape:zoom="0.34863387"
     inkscape:cx="929.34171"
     inkscape:cy="539.24766"
     inkscape:window-width="1512"
     inkscape:window-height="945"
     inkscape:window-x="0"
     inkscape:window-y="37"
     inkscape:window-maximized="0"
     inkscape:current-layer="Layer_1" />
  <!-- Generator: Adobe Illustrator 30.0.0, SVG Export Plug-In . SVG Version: 2.1.1 Build 123)  -->
  <defs
     id="defs1">
    <style
       id="style1">
      .st0 {
        fill: #c9582c;
      }
    </style>
  </defs>
  <path
     id="path28"
     class="st0"
     d="m 177.29,641.67 c -6.74,-13.14 -18.81,-20.41 -30.87,-14.55 -0.14,0.07 -17.08,8.16 -17.08,8.16 0,0 3.51,6.99 3.37,7.06 -4.03,2.1 -6.97,2.52 -3.18,9.32 l 6.35,-3.03 3.3,6.92 -6.21,2.97 14.36,30.07 c 0,0 22.84,-10.89 23.15,-11.05 15.19,-8.12 12.1,-25.54 6.81,-35.84 z m -13.45,28.09 c -0.14,0.08 -10.9,5.22 -10.9,5.22 l -15.81,-32.85 c 0,0 11.99,-5.76 12.28,-5.86 9.01,-3.26 13.84,4.66 17.55,12.42 3.71,7.76 4.31,17.01 -3.11,21.07 z M 119.37,656.5 c 0.07,0.14 -4.94,2.36 -4.94,2.36 l 3.37,7.06 5.08,-2.43 14.29,29.93 -42.35,20.22 -24.01,-50.41 47.91,-22.86 c 0,0 -6.26,3.13 0.64,16.13 z m 708.25,284.23 c -6.74,-13.14 -18.81,-20.41 -30.87,-14.55 -0.14,0.07 -17.08,8.16 -17.08,8.16 0,0 3.51,6.99 3.37,7.06 -4.03,2.1 -6.97,2.52 -3.18,9.32 l 6.35,-3.03 3.3,6.92 -6.21,2.97 14.36,30.07 c 0,0 22.84,-10.89 23.15,-11.05 15.19,-8.12 12.1,-25.54 6.81,-35.84 z m -13.45,28.09 c -0.14,0.08 -10.9,5.22 -10.9,5.22 l -15.81,-32.85 c 0,0 11.99,-5.76 12.28,-5.86 9.01,-3.26 13.84,4.66 17.55,12.42 3.71,7.76 4.31,17.01 -3.11,21.07 z M 769.7,955.56 c 0.07,0.14 -4.94,2.36 -4.94,2.36 l 3.37,7.06 5.08,-2.43 14.29,29.93 -42.35,20.22 -24.01,-50.41 47.91,-22.86 c 0,0 -6.26,3.13 0.64,16.13 z M 1337.26,952 c -6.74,-13.14 -18.81,-20.41 -30.87,-14.55 -0.14,0.07 -17.08,8.16 -17.08,8.16 0,0 3.51,6.99 3.37,7.06 -4.03,2.1 -6.97,2.52 -3.18,9.32 l 6.35,-3.03 3.3,6.92 -6.21,2.97 14.36,30.07 c 0,0 22.84,-10.89 23.15,-11.05 15.19,-8.12 12.1,-25.54 6.81,-35.84 z m -13.46,28.1 c -0.14,0.08 -10.9,5.22 -10.9,5.22 l -15.81,-32.85 c 0,0 11.99,-5.76 12.28,-5.86 9.01,-3.26 13.84,4.66 17.55,12.42 3.71,7.76 4.31,17.01 -3.11,21.07 z m -44.47,-13.26 c 0.07,0.14 -4.94,2.36 -4.94,2.36 l 3.37,7.06 5.08,-2.43 14.29,29.93 -42.35,20.22 -24.01,-50.41 47.91,-22.86 c 0,0 -6.26,3.13 0.64,16.13 z m 57.52,-907.51 c -6.74,-13.14 -18.81,-20.41 -30.87,-14.55 -0.14,0.07 -17.08,8.16 -17.08,8.16 0,0 3.51,6.99 3.37,7.06 -4.03,2.1 -6.97,2.52 -3.18,9.32 l 6.35,-3.03 3.3,6.92 -6.21,2.97 14.36,30.07 c 0,0 22.84,-10.89 23.15,-11.05 15.19,-8.12 12.1,-25.54 6.81,-35.84 z m -13.46,28.1 c -0.14,0.08 -10.9,5.22 -10.9,5.22 L 1296.68,59.8 c 0,0 11.99,-5.76 12.28,-5.86 9.01,-3.26 13.84,4.66 17.55,12.42 3.71,7.76 4.31,17.01 -3.11,21.07 z m -44.47,-13.27 c 0.07,0.14 -4.94,2.36 -4.94,2.36 l 3.37,7.06 5.08,-2.43 14.29,29.93 -42.35,20.22 -24.01,-50.41 47.91,-22.86 c 0,0 -6.26,3.13 0.64,16.13 z m 565.92,859.51 c -6.74,-13.14 -18.81,-20.41 -30.87,-14.55 -0.14,0.07 -17.08,8.16 -17.08,8.16 0,0 3.51,6.99 3.37,7.06 -4.03,2.1 -6.97,2.52 -3.18,9.32 l 6.35,-3.03 3.3,6.92 -6.21,2.97 14.36,30.07 c 0,0 22.84,-10.89 23.15,-11.05 15.19,-8.12 12.1,-25.54 6.81,-35.84 z m -13.45,28.09 c -0.14,0.08 -10.9,5.22 -10.9,5.22 l -15.81,-32.85 c 0,0 11.99,-5.76 12.28,-5.86 9.01,-3.26 13.84,4.66 17.55,12.42 3.71,7.76 4.31,17.01 -3.11,21.07 z m -44.47,-13.26 c 0.07,0.14 -4.94,2.36 -4.94,2.36 l 3.37,7.06 5.08,-2.43 14.29,29.93 -42.35,20.22 -24.01,-50.41 47.91,-22.86 c 0,0 -6.26,3.13 0.64,16.13 z m -34.64,-261.67 c -6.74,-13.14 -18.81,-20.41 -30.87,-14.55 -0.14,0.07 -17.08,8.16 -17.08,8.16 0,0 3.51,6.99 3.37,7.06 -4.03,2.1 -6.97,2.52 -3.18,9.32 l 6.35,-3.03 3.3,6.92 -6.21,2.97 14.36,30.07 c 0,0 22.84,-10.89 23.15,-11.05 15.19,-8.12 12.1,-25.54 6.81,-35.84 z m -13.46,28.09 c -0.14,0.08 -10.9,5.22 -10.9,5.22 l -15.81,-32.85 c 0,0 11.99,-5.76 12.28,-5.86 9.01,-3.26 13.84,4.66 17.55,12.42 3.71,7.76 4.31,17.01 -3.11,21.07 z m -44.46,-13.26 c 0.07,0.14 -4.94,2.36 -4.94,2.36 l 3.37,7.06 5.08,-2.43 14.29,29.93 -42.35,20.22 -24.01,-50.41 47.91,-22.86 c 0,0 -6.26,3.13 0.64,16.13 z m 33.83,-621.08 c -6.74,-13.14 -18.81,-20.41 -30.87,-14.55 -0.14,0.07 -17.08,8.16 -17.08,8.16 0,0 3.51,6.99 3.37,7.06 -4.03,2.1 -6.97,2.52 -3.18,9.32 l 6.35,-3.03 3.3,6.92 -6.21,2.97 14.36,30.07 c 0,0 22.84,-10.89 23.15,-11.05 15.19,-8.12 12.1,-25.54 6.81,-35.84 z m -13.45,28.1 c -0.14,0.08 -10.9,5.22 -10.9,5.22 l -15.81,-32.85 c 0,0 11.99,-5.76 12.28,-5.86 9.01,-3.26 13.84,4.66 17.55,12.42 3.71,7.76 4.31,17.01 -3.11,21.07 z m -44.47,-13.27 c 0.07,0.14 -4.94,2.36 -4.94,2.36 l 3.37,7.06 5.08,-2.43 14.29,29.93 -42.35,20.22 -24.01,-50.41 47.91,-22.86 c 0,0 -6.26,3.13 0.64,16.13 z m 162.37,282.92 c -6.74,-13.14 -18.81,-20.41 -30.87,-14.55 -0.14,0.07 -17.08,8.16 -17.08,8.16 0,0 3.51,6.99 3.37,7.06 -4.03,2.1 -6.97,2.52 -3.18,9.32 l 6.35,-3.03 3.3,6.92 -6.21,2.97 14.36,30.07 c 0,0 22.84,-10.89 23.15,-11.05 15.19,-8.12 12.1,-25.54 6.81,-35.84 z m -13.45,28.09 c -0.14,0.08 -10.9,5.22 -10.9,5.22 l -15.81,-32.85 c 0,0 11.99,-5.76 12.28,-5.86 9.01,-3.26 13.84,4.66 17.55,12.42 3.71,7.76 4.31,17.01 -3.11,21.07 z m -44.47,-13.26 c 0.07,0.14 -4.94,2.36 -4.94,2.36 l 3.37,7.06 5.08,-2.43 14.29,29.93 -42.35,20.22 -24.01,-50.41 47.91,-22.86 c 0,0 -6.26,3.13 0.64,16.13 z M 312.39,916.98 c -6.74,-13.14 -18.81,-20.41 -30.87,-14.55 -0.14,0.07 -17.08,8.16 -17.08,8.16 0,0 3.51,6.99 3.37,7.06 -4.03,2.1 -6.97,2.52 -3.18,9.32 l 6.35,-3.03 3.3,6.92 -6.21,2.97 14.36,30.07 c 0,0 22.84,-10.89 23.15,-11.05 15.19,-8.12 12.1,-25.54 6.81,-35.84 z m -13.46,28.09 c -0.14,0.08 -10.9,5.22 -10.9,5.22 l -15.81,-32.85 c 0,0 11.99,-5.76 12.28,-5.86 9.01,-3.26 13.84,4.66 17.55,12.42 3.71,7.76 4.31,17.01 -3.11,21.07 z m -44.46,-13.26 c 0.07,0.14 -4.94,2.36 -4.94,2.36 l 3.37,7.06 5.08,-2.43 14.29,29.93 -42.35,20.22 -24.01,-50.41 47.91,-22.86 c 0,0 -6.26,3.13 0.64,16.13 z M 939.18,83.91 C 932.44,70.77 920.37,63.5 908.31,69.36 c -0.14,0.07 -17.08,8.16 -17.08,8.16 0,0 3.51,6.99 3.37,7.06 -4.03,2.1 -6.97,2.52 -3.18,9.32 l 6.35,-3.03 3.3,6.92 -6.21,2.97 14.36,30.07 c 0,0 22.84,-10.89 23.15,-11.05 15.19,-8.12 12.1,-25.54 6.81,-35.84 z M 925.72,112 c -0.14,0.08 -10.9,5.22 -10.9,5.22 L 899.01,84.37 c 0,0 11.99,-5.76 12.28,-5.86 9.01,-3.26 13.84,4.66 17.55,12.42 3.71,7.76 4.31,17.01 -3.11,21.07 z M 881.25,98.74 c 0.07,0.14 -4.94,2.36 -4.94,2.36 l 3.37,7.06 5.08,-2.43 14.29,29.93 -42.35,20.22 -24.01,-50.41 47.91,-22.86 c 0,0 -6.26,3.13 0.64,16.13 z M 164.73,212.88 c -6.74,-13.14 -18.81,-20.41 -30.87,-14.55 -0.14,0.07 -17.08,8.16 -17.08,8.16 0,0 3.51,6.99 3.37,7.06 -4.03,2.1 -6.97,2.52 -3.18,9.32 l 6.35,-3.03 3.3,6.92 -6.21,2.97 14.36,30.07 c 0,0 22.84,-10.89 23.15,-11.05 15.19,-8.12 12.1,-25.54 6.81,-35.84 z m -13.45,28.1 c -0.14,0.08 -10.9,5.22 -10.9,5.22 l -15.81,-32.85 c 0,0 11.99,-5.76 12.28,-5.86 9.01,-3.26 13.84,4.66 17.55,12.42 3.71,7.76 4.31,17.01 -3.11,21.07 z m -44.47,-13.27 c 0.07,0.14 -4.94,2.36 -4.94,2.36 l 3.37,7.06 5.08,-2.43 14.29,29.93 -42.35,20.22 -24.01,-50.41 47.91,-22.86 c 0,0 -6.26,3.13 0.64,16.13 z M 553.24,68.53 C 546.5,55.39 534.43,48.12 522.37,53.98 c -0.14,0.07 -17.08,8.16 -17.08,8.16 0,0 3.51,6.99 3.37,7.06 -4.03,2.1 -6.97,2.52 -3.18,9.32 l 6.35,-3.03 3.3,6.92 -6.21,2.97 14.36,30.07 c 0,0 22.84,-10.89 23.15,-11.05 15.19,-8.12 12.1,-25.54 6.81,-35.84 z m -13.45,28.09 c -0.14,0.08 -10.9,5.22 -10.9,5.22 L 513.08,68.99 c 0,0 11.99,-5.76 12.28,-5.86 9.01,-3.26 13.84,4.66 17.55,12.42 3.71,7.76 4.31,17.01 -3.11,21.07 z M 495.32,83.36 c 0.07,0.14 -4.94,2.36 -4.94,2.36 l 3.37,7.06 5.08,-2.43 14.29,29.93 -42.35,20.22 -24.01,-50.41 47.91,-22.86 c 0,0 -6.26,3.13 0.64,16.13 z"
     style="display:inline;fill:#ed3a36;fill-opacity:1"
     sodipodi:nodetypes="ccccccccccccccccsccccccccccccccccccccccccccccsccccccccccccccccccccccccccccsccccccccccccccccccccccccccccsccccccccccccccccccccccccccccsccccccccccccccccccccccccccccsccccccccccccccccccccccccccccsccccccccccccccccccccccccccccsccccccccccccccccccccccccccccsccccccccccccccccccccccccccccsccccccccccccccccccccccccccccsccccccccccccccccccccccccccccscccccccccccc" />
</svg>
