<?xml version="1.0" encoding="UTF-8"?>
<svg id="Layer_1" xmlns="http://www.w3.org/2000/svg" xmlns:xlink="http://www.w3.org/1999/xlink" version="1.1" viewBox="0 0 1920 1080">
  <!-- Generator: Adobe Illustrator 30.0.0, SVG Export Plug-In . SVG Version: 2.1.1 Build 123)  -->
  <defs>
    <style>
      .st0 {
        fill: #010101;
      }

      .st1 {
        fill: #4da185;
      }
    </style>
  </defs>
  <a xlink:href="../dev/tllester-info/static/projects/luv-til-it-hurts"/>
  <a xlink:href="../dev/tllester-info/static/projects/luv-til-it-hurts"/>
  <a xlink:href="../dev/tllester-info/static/projects/luv-til-it-hurts"/>
  <a xlink:href="../dev/tllester-info/static/projects/luv-til-it-hurts"/>
  <a xlink:href="../dev/tllester-info/static/projects/luv-til-it-hurts"/>
  <a xlink:href="../dev/tllester-info/static/projects/luv-til-it-hurts"/>
  <a xlink:href="../dev/tllester-info/static/projects/luv-til-it-hurts"/>
  <a xlink:href="../dev/tllester-info/static/projects/luv-til-it-hurts"/>
  <a xlink:href="../dev/tllester-info/static/projects/luv-til-it-hurts"/>
  <a xlink:href="../dev/tllester-info/static/projects/luv-til-it-hurts"/>
  <a xlink:href="../dev/tllester-info/static/projects/luv-til-it-hurts"/>
  <a xlink:href="../dev/tllester-info/static/projects/luv-til-it-hurts"/>
  <a xlink:href="../dev/tllester-info/static/projects/luv-til-it-hurts"/>
  <a xlink:href="../dev/tllester-info/static/projects/luv-til-it-hurts"/>
  <a xlink:href="../dev/tllester-info/static/projects/luv-til-it-hurts"/>
  <a xlink:href="../dev/tllester-info/static/projects/luv-til-it-hurts"/>
  <a xlink:href="../dev/tllester-info/static/projects/luv-til-it-hurts"/>
  <a xlink:href="../dev/tllester-info/static/projects/luv-til-it-hurts"/>
  <a xlink:href="../dev/tllester-info/static/projects/luv-til-it-hurts"/>
  <a xlink:href="../dev/tllester-info/static/projects/luv-til-it-hurts"/>
  <a xlink:href="../dev/tllester-info/static/projects/my-art-world"/>
  <a xlink:href="../dev/tllester-info/static/projects/my-art-world"/>
  <a xlink:href="../dev/tllester-info/static/projects/my-art-world"/>
  <a xlink:href="../dev/tllester-info/static/projects/my-art-world"/>
  <a xlink:href="../dev/tllester-info/static/projects/my-art-world"/>
  <a xlink:href="../dev/tllester-info/static/projects/my-art-world"/>
  <a xlink:href="../dev/tllester-info/static/projects/my-art-world"/>
  <a xlink:href="../dev/tllester-info/static/projects/my-art-world"/>
  <a xlink:href="../dev/tllester-info/static/projects/my-art-world"/>
  <a xlink:href="../dev/tllester-info/static/projects/my-art-world"/>
  <a xlink:href="../dev/tllester-info/static/projects/my-art-world"/>
  <a xlink:href="../dev/tllester-info/static/projects/my-art-world"/>
  <a xlink:href="../dev/tllester-info/static/projects/my-art-world"/>
  <a xlink:href="../dev/tllester-info/static/projects/my-art-world"/>
  <a xlink:href="../dev/tllester-info/static/projects/my-art-world"/>
  <a xlink:href="../dev/tllester-info/static/projects/my-art-world"/>
  <a xlink:href="../dev/tllester-info/static/projects/my-art-world"/>
  <a xlink:href="../dev/tllester-info/static/projects/my-art-world"/>
  <a xlink:href="../dev/tllester-info/static/projects/my-art-world"/>
  <a xlink:href="../dev/tllester-info/static/projects/my-art-world"/>
  <g id="g3">
    <path id="path3" class="st1" d="M1730.72,842.14c-.9.79-2.04,1.22-3.07,1.74-.33.16-1.26,0-1.6,0-1.42,0-2.74-.15-4.14-.4-.49-.09-.99-.14-1.47-.27-.23-.06-.44-.21-.67-.27-.47-.12-.44-.02-.94-.27-.08-.04-.19.04-.27,0-.85-.43-1.8-.77-2.67-1.2-.39-.19-.77-.58-1.2-.67-.13-.03-.27.04-.4,0-.15-.05-.25-.22-.4-.27-.13-.04-.27.04-.4,0-.15-.05-.26-.2-.4-.27-.52-.26-.34-.01-.94-.27-.15-.06-.25-.2-.4-.27-.48-.21-.98-.35-1.47-.53-.83-.31-.27-.21-1.07-.67-.75-.43-1.62-.81-2.41-1.2-.45-.22-1.24-.57-1.6-.94-.11-.11-.15-.29-.27-.4-.42-.42-.73-.52-1.07-1.07-.11-.17-.15-.37-.27-.53-.27-.38-.59-.52-.8-.94-.11-.22-.34-.43-.4-.67-.07-.26,0-.67,0-.94,0-.09-.09-.27,0-.27.1,0,.17.11.27.13.76.22,1.51.42,2.27.67.79.26,1.65.43,2.41.8.45.23.97.54,1.47.67.25.06.43.05.67.13.06.02.09.09.13.13.09.04.17.11.27.13.09.02.18-.03.27,0,.7.28,1.28.81,2,1.07,1.63.59,3.28,1.11,4.94,1.6.62.18,1.27.3,1.87.53,1.02.39,2.01,1.05,3.07,1.34.26.07.54.06.8.13.58.16,1.18.44,1.74.67.52.21,1.1.32,1.6.53.15.06.26.2.4.27.64.32,1.36.52,2,.8.15.06.26.19.4.27.64.36.93.4,1.74.67h0ZM1703.57,834.08s-10.09-12.41-9.64-30.61c.45-18.2,0-13.53,0-13.53v-5.91l-15.09.54-15.09.54-6.23-2.07-6.23-2.07-3.87-3.54-3.87-3.54-3.53-6.02-3.53-6.02-.63-7.89-.63-7.89,1.89-4.53,1.89-4.53,3.93-4.48,3.93-4.48,7.97-3.63,7.97-3.63,7.71-.05,7.71-.05,5.31,3.52,5.31,3.52,3.81,5.26,3.81,5.26,1.99,6.46,1.99,6.46.71,13.65.71,13.65h24.5l7.52,1.96,7.52,1.96,4.15,3.16,4.15,3.16,3.4,5.79,3.4,5.79.98,5.27.98,5.27-1.25,5.91-1.25,5.91-3.74,5.9-3.74,5.9-6.31,3.92-11.12,5.26M1738.45,833.64c1.12-.58,3.35-1.73,3.35-1.73l3.94-4.49,3.94-4.49,1.44-5.36,1.44-5.36-.82-5.13-.82-5.13-3.14-5.36-3.14-5.36-5.93-3.48-5.93-3.48-15.56-.52-15.56-.52-.88,3.5-.88,3.5s.53,8.11.8,12.16c.27,4.05-.04,9.03.8,12.16.84,3.14,2.14,4.37,3.2,6.55,1.07,2.18,1.75,4.85,3.2,6.55,1.46,1.7,3.36,2.33,5.04,3.49s3.46,2.78,5.04,3.49c.79.36,1.48.53,2.15.65.67.12,1.31.2,2,.37s1.37.41,2.05.61,1.38.38,2.1.41c.73.03,1.46-.07,2.19-.22.74-.14,1.47-.32,2.21-.43.73-.11,1.51-.17,2.26-.25s1.49-.19,2.14-.4c1.3-.42,2.23-1.15,3.35-1.73h0ZM1694.91,763.97l-.64-14.49-3.82-8.16-3.82-8.16-4.13-2.94-4.13-2.94-6.04-.58-6.04-.58-4.91,1.6-4.91,1.6-5.39,3.69-5.39,3.69-2.04,3.95-2.04,3.95.51,8.03.51,8.03,3.77,5.36,3.77,5.36,4.22,2.47,4.22,2.47,4.01.96,4.01.96,14.46.13,14.46.13-.64-14.49Z"/>
    <path id="path1-1" class="st0" d="M1720.08,820.8c-1.32-.57-2.94-.89-3.96-1.72-1.02-.84-1.38-1.97-2.07-2.95-.69-.98-1.81-2.12-2.07-2.95s0-1.08,0-1.62-.39-1.23,0-1.62c.39-.39,1.12,0,1.68,0s.76-.4,1.68,0,1.99,2.12,2.98,3.17,1.71,2.62,2.98,3.17c1.27.55,2.65,0,3.98,0s2.86.38,3.98,0c1.12-.38,1.64-1.25,2.46-1.88s2.49-.98,2.46-1.88c-.03-.9-1.27-.85-1.9-1.27s-.78-.93-1.9-1.27-3.17-.01-4.76-.02c-1.59,0-3.45.52-4.76-.02-1.31-.54-1.76-1.76-2.64-2.64s-2.44-1.7-2.64-2.64.49-1.27.73-1.91c.24-.64.73-1.91.73-1.91v-2.39l3.17-1.21,3.17-1.21,3.17,1.21,3.17,1.21v2.44s-2.75.27-4.13.4c-1.38.13-3.52-.27-4.13.4s0,.85,0,1.27-.5.72,0,1.27c.5.55,2.12.23,3.17.34,1.06.11,1.95.18,3.17.34,1.22.16,2.76.45,4.14.67s3.04-.04,4.14.67c1.09.71,1.32,2.02,1.98,3.03.66,1.01,1.94,1.92,1.98,3.03.05,1.11-.96,1.79-1.44,2.69s-.55,1.75-1.44,2.69c-.89.94-2.7,1.64-4.05,2.47s-2.87,2.15-4.05,2.47c-1.17.32-1.69-.03-2.54-.04s-1.42.2-2.54-.04-2.64-1.15-3.96-1.72ZM1664.58,769.72l-.85-.85v-12.27h-8.89v-5.08h6.17l2-2,2-2v-7.56l1.94-3.75,1.94-3.75h5.89l1.99,2.22,1.99,2.22.27,1.9.27,1.9-.15,2.22-.15,2.22h-5.08v-6.2l-1.41-.87-1.41-.87-1.11,1.75-1.11,1.75-.02,4.6-.02,4.6,5.08.81,5.08.81v3.51l-2.01.77-2.01.77h-4.87v9.95l-.77,2.01-.77,2.01h-3.11l-.85-.85Z"/>
  </g>
  <g id="g31" data-name="g3">
    <path id="path31" data-name="path3" class="st1" d="M1327.53,996.92c-.9.79-2.04,1.22-3.07,1.74-.33.16-1.26,0-1.6,0-1.42,0-2.74-.15-4.14-.4-.49-.09-.99-.14-1.47-.27-.23-.06-.44-.21-.67-.27-.47-.12-.44-.02-.94-.27-.08-.04-.19.04-.27,0-.85-.43-1.8-.77-2.67-1.2-.39-.19-.77-.58-1.2-.67-.13-.03-.27.04-.4,0-.15-.05-.25-.22-.4-.27-.13-.04-.27.04-.4,0-.15-.05-.26-.2-.4-.27-.52-.26-.34-.01-.94-.27-.15-.06-.25-.2-.4-.27-.48-.21-.98-.35-1.47-.53-.83-.31-.27-.21-1.07-.67-.75-.43-1.62-.81-2.41-1.2-.45-.22-1.24-.57-1.6-.94-.11-.11-.15-.29-.27-.4-.42-.42-.73-.52-1.07-1.07-.11-.17-.15-.37-.27-.53-.27-.38-.59-.52-.8-.94-.11-.22-.34-.43-.4-.67-.07-.26,0-.67,0-.94,0-.09-.09-.27,0-.27.1,0,.17.11.27.13.76.22,1.51.42,2.27.67.79.26,1.65.43,2.41.8.45.23.97.54,1.47.67.25.06.43.05.67.13.06.02.09.09.13.13.09.04.17.11.27.13.09.02.18-.03.27,0,.7.28,1.28.81,2,1.07,1.63.59,3.28,1.11,4.94,1.6.62.18,1.27.3,1.87.53,1.02.39,2.01,1.05,3.07,1.34.26.07.54.06.8.13.58.16,1.18.44,1.74.67.52.21,1.1.32,1.6.53.15.06.26.2.4.27.64.32,1.36.52,2,.8.15.06.26.19.4.27.64.36.93.4,1.74.67h0ZM1300.38,988.86s-10.09-12.41-9.64-30.61c.45-18.2,0-13.53,0-13.53v-5.91l-15.09.54-15.09.54-6.23-2.07-6.23-2.07-3.87-3.54-3.87-3.54-3.53-6.02-3.53-6.02-.63-7.89-.63-7.89,1.89-4.53,1.89-4.53,3.93-4.48,3.93-4.48,7.97-3.63,7.97-3.63,7.71-.05,7.71-.05,5.31,3.52,5.31,3.52,3.81,5.26,3.81,5.26,1.99,6.46,1.99,6.46.71,13.65.71,13.65h24.5l7.52,1.96,7.52,1.96,4.15,3.16,4.15,3.16,3.4,5.79,3.4,5.79.98,5.27.98,5.27-1.25,5.91-1.25,5.91-3.74,5.9-3.74,5.9-6.31,3.92-11.12,5.26M1335.26,988.42c1.12-.58,3.35-1.73,3.35-1.73l3.94-4.49,3.94-4.49,1.44-5.36,1.44-5.36-.82-5.13-.82-5.13-3.14-5.36-3.14-5.36-5.93-3.48-5.93-3.48-15.56-.52-15.56-.52-.88,3.5-.88,3.5s.53,8.11.8,12.16c.27,4.05-.04,9.03.8,12.16.84,3.14,2.14,4.37,3.2,6.55,1.07,2.18,1.75,4.85,3.2,6.55,1.46,1.7,3.36,2.33,5.04,3.49s3.46,2.78,5.04,3.49c.79.36,1.48.53,2.15.65.67.12,1.31.2,2,.37s1.37.41,2.05.61,1.38.38,2.1.41c.73.03,1.46-.07,2.19-.22.74-.14,1.47-.32,2.21-.43.73-.11,1.51-.17,2.26-.25s1.49-.19,2.14-.4c1.3-.42,2.23-1.15,3.35-1.73h0ZM1291.73,918.75l-.64-14.49-3.82-8.16-3.82-8.16-4.13-2.94-4.13-2.94-6.04-.58-6.04-.58-4.91,1.6-4.91,1.6-5.39,3.69-5.39,3.69-2.04,3.95-2.04,3.95.51,8.03.51,8.03,3.77,5.36,3.77,5.36,4.22,2.47,4.22,2.47,4.01.96,4.01.96,14.46.13,14.46.13-.64-14.49Z"/>
    <path id="path1-11" data-name="path1-1" class="st0" d="M1316.89,975.58c-1.32-.57-2.94-.89-3.96-1.72-1.02-.84-1.38-1.97-2.07-2.95-.69-.98-1.81-2.12-2.07-2.95s0-1.08,0-1.62-.39-1.23,0-1.62c.39-.39,1.12,0,1.68,0s.76-.4,1.68,0,1.99,2.12,2.98,3.17,1.71,2.62,2.98,3.17c1.27.55,2.65,0,3.98,0s2.86.38,3.98,0c1.12-.38,1.64-1.25,2.46-1.88s2.49-.98,2.46-1.88c-.03-.9-1.27-.85-1.9-1.27s-.78-.93-1.9-1.27-3.17-.01-4.76-.02c-1.59,0-3.45.52-4.76-.02-1.31-.54-1.76-1.76-2.64-2.64s-2.44-1.7-2.64-2.64.49-1.27.73-1.91c.24-.64.73-1.91.73-1.91v-2.39l3.17-1.21,3.17-1.21,3.17,1.21,3.17,1.21v2.44s-2.75.27-4.13.4c-1.38.13-3.52-.27-4.13.4s0,.85,0,1.27-.5.72,0,1.27c.5.55,2.12.23,3.17.34,1.06.11,1.95.18,3.17.34,1.22.16,2.76.45,4.14.67s3.04-.04,4.14.67c1.09.71,1.32,2.02,1.98,3.03.66,1.01,1.94,1.92,1.98,3.03.05,1.11-.96,1.79-1.44,2.69s-.55,1.75-1.44,2.69c-.89.94-2.7,1.64-4.05,2.47s-2.87,2.15-4.05,2.47c-1.17.32-1.69-.03-2.54-.04s-1.42.2-2.54-.04-2.64-1.15-3.96-1.72ZM1261.39,924.5l-.85-.85v-12.27h-8.89v-5.08h6.17l2-2,2-2v-7.56l1.94-3.75,1.94-3.75h5.89l1.99,2.22,1.99,2.22.27,1.9.27,1.9-.15,2.22-.15,2.22h-5.08v-6.2l-1.41-.87-1.41-.87-1.11,1.75-1.11,1.75-.02,4.6-.02,4.6,5.08.81,5.08.81v3.51l-2.01.77-2.01.77h-4.87v9.95l-.77,2.01-.77,2.01h-3.11l-.85-.85Z"/>
  </g>
  <g id="g32" data-name="g3">
    <path id="path32" data-name="path3" class="st1" d="M1298.14,188.63c-.9.79-2.04,1.22-3.07,1.74-.33.16-1.26,0-1.6,0-1.42,0-2.74-.15-4.14-.4-.49-.09-.99-.14-1.47-.27-.23-.06-.44-.21-.67-.27-.47-.12-.44-.02-.94-.27-.08-.04-.19.04-.27,0-.85-.43-1.8-.77-2.67-1.2-.39-.19-.77-.58-1.2-.67-.13-.03-.27.04-.4,0-.15-.05-.25-.22-.4-.27-.13-.04-.27.04-.4,0-.15-.05-.26-.2-.4-.27-.52-.26-.34-.01-.94-.27-.15-.06-.25-.2-.4-.27-.48-.21-.98-.35-1.47-.53-.83-.31-.27-.21-1.07-.67-.75-.43-1.62-.81-2.41-1.2-.45-.22-1.24-.57-1.6-.94-.11-.11-.15-.29-.27-.4-.42-.42-.73-.52-1.07-1.07-.11-.17-.15-.37-.27-.53-.27-.38-.59-.52-.8-.94-.11-.22-.34-.43-.4-.67-.07-.26,0-.67,0-.94,0-.09-.09-.27,0-.27.1,0,.17.11.27.13.76.22,1.51.42,2.27.67.79.26,1.65.43,2.41.8.45.23.97.54,1.47.67.25.06.43.05.67.13.06.02.09.09.13.13.09.04.17.11.27.13.09.02.18-.03.27,0,.7.28,1.28.81,2,1.07,1.63.59,3.28,1.11,4.94,1.6.62.18,1.27.3,1.87.53,1.02.39,2.01,1.05,3.07,1.34.26.07.54.06.8.13.58.16,1.18.44,1.74.67.52.21,1.1.32,1.6.53.15.06.26.2.4.27.64.32,1.36.52,2,.8.15.06.26.19.4.27.64.36.93.4,1.74.67h0ZM1270.99,180.57s-10.09-12.41-9.64-30.61c.45-18.2,0-13.53,0-13.53v-5.91l-15.09.54-15.09.54-6.23-2.07-6.23-2.07-3.87-3.54-3.87-3.54-3.53-6.02-3.53-6.02-.63-7.89-.63-7.89,1.89-4.53,1.89-4.53,3.93-4.48,3.93-4.48,7.97-3.63,7.97-3.63,7.71-.05,7.71-.05,5.31,3.52,5.31,3.52,3.81,5.26,3.81,5.26,1.99,6.46,1.99,6.46.71,13.65.71,13.65h24.5l7.52,1.96,7.52,1.96,4.15,3.16,4.15,3.16,3.4,5.79,3.4,5.79.98,5.27.98,5.27-1.25,5.91-1.25,5.91-3.74,5.9-3.74,5.9-6.31,3.92-11.12,5.26M1305.88,180.13c1.12-.58,3.35-1.73,3.35-1.73l3.94-4.49,3.94-4.49,1.44-5.36,1.44-5.36-.82-5.13-.82-5.13-3.14-5.36-3.14-5.36-5.93-3.48-5.93-3.48-15.56-.52-15.56-.52-.88,3.5-.88,3.5s.53,8.11.8,12.16c.27,4.05-.04,9.03.8,12.16.84,3.14,2.14,4.37,3.2,6.55,1.07,2.18,1.75,4.85,3.2,6.55,1.46,1.7,3.36,2.33,5.04,3.49s3.46,2.78,5.04,3.49c.79.36,1.48.53,2.15.65.67.12,1.31.2,2,.37s1.37.41,2.05.61,1.38.38,2.1.41c.73.03,1.46-.07,2.19-.22.74-.14,1.47-.32,2.21-.43.73-.11,1.51-.17,2.26-.25s1.49-.19,2.14-.4c1.3-.42,2.23-1.15,3.35-1.73h0ZM1262.34,110.45l-.64-14.49-3.82-8.16-3.82-8.16-4.13-2.94-4.13-2.94-6.04-.58-6.04-.58-4.91,1.6-4.91,1.6-5.39,3.69-5.39,3.69-2.04,3.95-2.04,3.95.51,8.03.51,8.03,3.77,5.36,3.77,5.36,4.22,2.47,4.22,2.47,4.01.96,4.01.96,14.46.13,14.46.13-.64-14.49Z"/>
    <path id="path1-12" data-name="path1-1" class="st0" d="M1287.5,167.29c-1.32-.57-2.94-.89-3.96-1.72-1.02-.84-1.38-1.97-2.07-2.95-.69-.98-1.81-2.12-2.07-2.95s0-1.08,0-1.62-.39-1.23,0-1.62c.39-.39,1.12,0,1.68,0s.76-.4,1.68,0,1.99,2.12,2.98,3.17,1.71,2.62,2.98,3.17c1.27.55,2.65,0,3.98,0s2.86.38,3.98,0c1.12-.38,1.64-1.25,2.46-1.88s2.49-.98,2.46-1.88c-.03-.9-1.27-.85-1.9-1.27s-.78-.93-1.9-1.27-3.17-.01-4.76-.02c-1.59,0-3.45.52-4.76-.02-1.31-.54-1.76-1.76-2.64-2.64s-2.44-1.7-2.64-2.64.49-1.27.73-1.91c.24-.64.73-1.91.73-1.91v-2.39l3.17-1.21,3.17-1.21,3.17,1.21,3.17,1.21v2.44s-2.75.27-4.13.4c-1.38.13-3.52-.27-4.13.4s0,.85,0,1.27-.5.72,0,1.27c.5.55,2.12.23,3.17.34,1.06.11,1.95.18,3.17.34,1.22.16,2.76.45,4.14.67s3.04-.04,4.14.67c1.09.71,1.32,2.02,1.98,3.03.66,1.01,1.94,1.92,1.98,3.03.05,1.11-.96,1.79-1.44,2.69s-.55,1.75-1.44,2.69c-.89.94-2.7,1.64-4.05,2.47s-2.87,2.15-4.05,2.47c-1.17.32-1.69-.03-2.54-.04s-1.42.2-2.54-.04-2.64-1.15-3.96-1.72ZM1232,116.21l-.85-.85v-12.27h-8.89v-5.08h6.17l2-2,2-2v-7.56l1.94-3.75,1.94-3.75h5.89l1.99,2.22,1.99,2.22.27,1.9.27,1.9-.15,2.22-.15,2.22h-5.08v-6.2l-1.41-.87-1.41-.87-1.11,1.75-1.11,1.75-.02,4.6-.02,4.6,5.08.81,5.08.81v3.51l-2.01.77-2.01.77h-4.87v9.95l-.77,2.01-.77,2.01h-3.11l-.85-.85Z"/>
  </g>
  <g id="g33" data-name="g3">
    <path id="path33" data-name="path3" class="st1" d="M1651.5,366.31c-.9.79-2.04,1.22-3.07,1.74-.33.16-1.26,0-1.6,0-1.42,0-2.74-.15-4.14-.4-.49-.09-.99-.14-1.47-.27-.23-.06-.44-.21-.67-.27-.47-.12-.44-.02-.94-.27-.08-.04-.19.04-.27,0-.85-.43-1.8-.77-2.67-1.2-.39-.19-.77-.58-1.2-.67-.13-.03-.27.04-.4,0-.15-.05-.25-.22-.4-.27-.13-.04-.27.04-.4,0-.15-.05-.26-.2-.4-.27-.52-.26-.34-.01-.94-.27-.15-.06-.25-.2-.4-.27-.48-.21-.98-.35-1.47-.53-.83-.31-.27-.21-1.07-.67-.75-.43-1.62-.81-2.41-1.2-.45-.22-1.24-.57-1.6-.94-.11-.11-.15-.29-.27-.4-.42-.42-.73-.52-1.07-1.07-.11-.17-.15-.37-.27-.53-.27-.38-.59-.52-.8-.94-.11-.22-.34-.43-.4-.67-.07-.26,0-.67,0-.94,0-.09-.09-.27,0-.27.1,0,.17.11.27.13.76.22,1.51.42,2.27.67.79.26,1.65.43,2.41.8.45.23.97.54,1.47.67.25.06.43.05.67.13.06.02.09.09.13.13.09.04.17.11.27.13.09.02.18-.03.27,0,.7.28,1.28.81,2,1.07,1.63.59,3.28,1.11,4.94,1.6.62.18,1.27.3,1.87.53,1.02.39,2.01,1.05,3.07,1.34.26.07.54.06.8.13.58.16,1.18.44,1.74.67.52.21,1.1.32,1.6.53.15.06.26.2.4.27.64.32,1.36.52,2,.8.15.06.26.19.4.27.64.36.93.4,1.74.67h0ZM1624.35,358.24s-10.09-12.41-9.64-30.61c.45-18.2,0-13.53,0-13.53v-5.91l-15.09.54-15.09.54-6.23-2.07-6.23-2.07-3.87-3.54-3.87-3.54-3.53-6.02-3.53-6.02-.63-7.89-.63-7.89,1.89-4.53,1.89-4.53,3.93-4.48,3.93-4.48,7.97-3.63,7.97-3.63,7.71-.05,7.71-.05,5.31,3.52,5.31,3.52,3.81,5.26,3.81,5.26,1.99,6.46,1.99,6.46.71,13.65.71,13.65h24.5l7.52,1.96,7.52,1.96,4.15,3.16,4.15,3.16,3.4,5.79,3.4,5.79.98,5.27.98,5.27-1.25,5.91-1.25,5.91-3.74,5.9-3.74,5.9-6.31,3.92-11.12,5.26M1659.23,357.8c1.12-.58,3.35-1.73,3.35-1.73l3.94-4.49,3.94-4.49,1.44-5.36,1.44-5.36-.82-5.13-.82-5.13-3.14-5.36-3.14-5.36-5.93-3.48-5.93-3.48-15.56-.52-15.56-.52-.88,3.5-.88,3.5s.53,8.11.8,12.16c.27,4.05-.04,9.03.8,12.16.84,3.14,2.14,4.37,3.2,6.55,1.07,2.18,1.75,4.85,3.2,6.55,1.46,1.7,3.36,2.33,5.04,3.49s3.46,2.78,5.04,3.49c.79.36,1.48.53,2.15.65.67.12,1.31.2,2,.37s1.37.41,2.05.61,1.38.38,2.1.41c.73.03,1.46-.07,2.19-.22.74-.14,1.47-.32,2.21-.43.73-.11,1.51-.17,2.26-.25s1.49-.19,2.14-.4c1.3-.42,2.23-1.15,3.35-1.73h0ZM1615.7,288.13l-.64-14.49-3.82-8.16-3.82-8.16-4.13-2.94-4.13-2.94-6.04-.58-6.04-.58-4.91,1.6-4.91,1.6-5.39,3.69-5.39,3.69-2.04,3.95-2.04,3.95.51,8.03.51,8.03,3.77,5.36,3.77,5.36,4.22,2.47,4.22,2.47,4.01.96,4.01.96,14.46.13,14.46.13-.64-14.49Z"/>
    <path id="path1-13" data-name="path1-1" class="st0" d="M1640.86,344.96c-1.32-.57-2.94-.89-3.96-1.72-1.02-.84-1.38-1.97-2.07-2.95-.69-.98-1.81-2.12-2.07-2.95s0-1.08,0-1.62-.39-1.23,0-1.62c.39-.39,1.12,0,1.68,0s.76-.4,1.68,0,1.99,2.12,2.98,3.17,1.71,2.62,2.98,3.17c1.27.55,2.65,0,3.98,0s2.86.38,3.98,0c1.12-.38,1.64-1.25,2.46-1.88s2.49-.98,2.46-1.88c-.03-.9-1.27-.85-1.9-1.27s-.78-.93-1.9-1.27-3.17-.01-4.76-.02c-1.59,0-3.45.52-4.76-.02-1.31-.54-1.76-1.76-2.64-2.64s-2.44-1.7-2.64-2.64.49-1.27.73-1.91c.24-.64.73-1.91.73-1.91v-2.39l3.17-1.21,3.17-1.21,3.17,1.21,3.17,1.21v2.44s-2.75.27-4.13.4c-1.38.13-3.52-.27-4.13.4s0,.85,0,1.27-.5.72,0,1.27c.5.55,2.12.23,3.17.34,1.06.11,1.95.18,3.17.34,1.22.16,2.76.45,4.14.67s3.04-.04,4.14.67c1.09.71,1.32,2.02,1.98,3.03.66,1.01,1.94,1.92,1.98,3.03.05,1.11-.96,1.79-1.44,2.69s-.55,1.75-1.44,2.69c-.89.94-2.7,1.64-4.05,2.47s-2.87,2.15-4.05,2.47c-1.17.32-1.69-.03-2.54-.04s-1.42.2-2.54-.04-2.64-1.15-3.96-1.72ZM1585.36,293.88l-.85-.85v-12.27h-8.89v-5.08h6.17l2-2,2-2v-7.56l1.94-3.75,1.94-3.75h5.89l1.99,2.22,1.99,2.22.27,1.9.27,1.9-.15,2.22-.15,2.22h-5.08v-6.2l-1.41-.87-1.41-.87-1.11,1.75-1.11,1.75-.02,4.6-.02,4.6,5.08.81,5.08.81v3.51l-2.01.77-2.01.77h-4.87v9.95l-.77,2.01-.77,2.01h-3.11l-.85-.85Z"/>
  </g>
  <g id="g34" data-name="g3">
    <path id="path34" data-name="path3" class="st1" d="M1317.82,562.57c-.9.79-2.04,1.22-3.07,1.74-.33.16-1.26,0-1.6,0-1.42,0-2.74-.15-4.14-.4-.49-.09-.99-.14-1.47-.27-.23-.06-.44-.21-.67-.27-.47-.12-.44-.02-.94-.27-.08-.04-.19.04-.27,0-.85-.43-1.8-.77-2.67-1.2-.39-.19-.77-.58-1.2-.67-.13-.03-.27.04-.4,0-.15-.05-.25-.22-.4-.27-.13-.04-.27.04-.4,0-.15-.05-.26-.2-.4-.27-.52-.26-.34-.01-.94-.27-.15-.06-.25-.2-.4-.27-.48-.21-.98-.35-1.47-.53-.83-.31-.27-.21-1.07-.67-.75-.43-1.62-.81-2.41-1.2-.45-.22-1.24-.57-1.6-.94-.11-.11-.15-.29-.27-.4-.42-.42-.73-.52-1.07-1.07-.11-.17-.15-.37-.27-.53-.27-.38-.59-.52-.8-.94-.11-.22-.34-.43-.4-.67-.07-.26,0-.67,0-.94,0-.09-.09-.27,0-.27.1,0,.17.11.27.13.76.22,1.51.42,2.27.67.79.26,1.65.43,2.41.8.45.23.97.54,1.47.67.25.06.43.05.67.13.06.02.09.09.13.13.09.04.17.11.27.13.09.02.18-.03.27,0,.7.28,1.28.81,2,1.07,1.63.59,3.28,1.11,4.94,1.6.62.18,1.27.3,1.87.53,1.02.39,2.01,1.05,3.07,1.34.26.07.54.06.8.13.58.16,1.18.44,1.74.67.52.21,1.1.32,1.6.53.15.06.26.2.4.27.64.32,1.36.52,2,.8.15.06.26.19.4.27.64.36.93.4,1.74.67h0ZM1290.67,554.51s-10.09-12.41-9.64-30.61c.45-18.2,0-13.53,0-13.53v-5.91l-15.09.54-15.09.54-6.23-2.07-6.23-2.07-3.87-3.54-3.87-3.54-3.53-6.02-3.53-6.02-.63-7.89-.63-7.89,1.89-4.53,1.89-4.53,3.93-4.48,3.93-4.48,7.97-3.63,7.97-3.63,7.71-.05,7.71-.05,5.31,3.52,5.31,3.52,3.81,5.26,3.81,5.26,1.99,6.46,1.99,6.46.71,13.65.71,13.65h24.5l7.52,1.96,7.52,1.96,4.15,3.16,4.15,3.16,3.4,5.79,3.4,5.79.98,5.27.98,5.27-1.25,5.91-1.25,5.91-3.74,5.9-3.74,5.9-6.31,3.92-11.12,5.26M1325.55,554.06c1.12-.58,3.35-1.73,3.35-1.73l3.94-4.49,3.94-4.49,1.44-5.36,1.44-5.36-.82-5.13-.82-5.13-3.14-5.36-3.14-5.36-5.93-3.48-5.93-3.48-15.56-.52-15.56-.52-.88,3.5-.88,3.5s.53,8.11.8,12.16c.27,4.05-.04,9.03.8,12.16.84,3.14,2.14,4.37,3.2,6.55,1.07,2.18,1.75,4.85,3.2,6.55,1.46,1.7,3.36,2.33,5.04,3.49s3.46,2.78,5.04,3.49c.79.36,1.48.53,2.15.65.67.12,1.31.2,2,.37s1.37.41,2.05.61,1.38.38,2.1.41c.73.03,1.46-.07,2.19-.22.74-.14,1.47-.32,2.21-.43.73-.11,1.51-.17,2.26-.25s1.49-.19,2.14-.4c1.3-.42,2.23-1.15,3.35-1.73h0ZM1282.01,484.39l-.64-14.49-3.82-8.16-3.82-8.16-4.13-2.94-4.13-2.94-6.04-.58-6.04-.58-4.91,1.6-4.91,1.6-5.39,3.69-5.39,3.69-2.04,3.95-2.04,3.95.51,8.03.51,8.03,3.77,5.36,3.77,5.36,4.22,2.47,4.22,2.47,4.01.96,4.01.96,14.46.13,14.46.13-.64-14.49Z"/>
    <path id="path1-14" data-name="path1-1" class="st0" d="M1307.18,541.22c-1.32-.57-2.94-.89-3.96-1.72-1.02-.84-1.38-1.97-2.07-2.95-.69-.98-1.81-2.12-2.07-2.95s0-1.08,0-1.62-.39-1.23,0-1.62c.39-.39,1.12,0,1.68,0s.76-.4,1.68,0,1.99,2.12,2.98,3.17,1.71,2.62,2.98,3.17c1.27.55,2.65,0,3.98,0s2.86.38,3.98,0c1.12-.38,1.64-1.25,2.46-1.88s2.49-.98,2.46-1.88c-.03-.9-1.27-.85-1.9-1.27s-.78-.93-1.9-1.27-3.17-.01-4.76-.02c-1.59,0-3.45.52-4.76-.02-1.31-.54-1.76-1.76-2.64-2.64s-2.44-1.7-2.64-2.64.49-1.27.73-1.91c.24-.64.73-1.91.73-1.91v-2.39l3.17-1.21,3.17-1.21,3.17,1.21,3.17,1.21v2.44s-2.75.27-4.13.4c-1.38.13-3.52-.27-4.13.4s0,.85,0,1.27-.5.72,0,1.27c.5.55,2.12.23,3.17.34,1.06.11,1.95.18,3.17.34,1.22.16,2.76.45,4.14.67s3.04-.04,4.14.67c1.09.71,1.32,2.02,1.98,3.03.66,1.01,1.94,1.92,1.98,3.03.05,1.11-.96,1.79-1.44,2.69s-.55,1.75-1.44,2.69c-.89.94-2.7,1.64-4.05,2.47s-2.87,2.15-4.05,2.47c-1.17.32-1.69-.03-2.54-.04s-1.42.2-2.54-.04-2.64-1.15-3.96-1.72ZM1251.68,490.15l-.85-.85v-12.27h-8.89v-5.08h6.17l2-2,2-2v-7.56l1.94-3.75,1.94-3.75h5.89l1.99,2.22,1.99,2.22.27,1.9.27,1.9-.15,2.22-.15,2.22h-5.08v-6.2l-1.41-.87-1.41-.87-1.11,1.75-1.11,1.75-.02,4.6-.02,4.6,5.08.81,5.08.81v3.51l-2.01.77-2.01.77h-4.87v9.95l-.77,2.01-.77,2.01h-3.11l-.85-.85Z"/>
  </g>
  <g id="g35" data-name="g3">
    <path id="path35" data-name="path3" class="st1" d="M480.41,955.01c-.9.79-2.04,1.22-3.07,1.74-.33.16-1.26,0-1.6,0-1.42,0-2.74-.15-4.14-.4-.49-.09-.99-.14-1.47-.27-.23-.06-.44-.21-.67-.27-.47-.12-.44-.02-.94-.27-.08-.04-.19.04-.27,0-.85-.43-1.8-.77-2.67-1.2-.39-.19-.77-.58-1.2-.67-.13-.03-.27.04-.4,0-.15-.05-.25-.22-.4-.27-.13-.04-.27.04-.4,0-.15-.05-.26-.2-.4-.27-.52-.26-.34-.01-.94-.27-.15-.06-.25-.2-.4-.27-.48-.21-.98-.35-1.47-.53-.83-.31-.27-.21-1.07-.67-.75-.43-1.62-.81-2.41-1.2-.45-.22-1.24-.57-1.6-.94-.11-.11-.15-.29-.27-.4-.42-.42-.73-.52-1.07-1.07-.11-.17-.15-.37-.27-.53-.27-.38-.59-.52-.8-.94-.11-.22-.34-.43-.4-.67-.07-.26,0-.67,0-.94,0-.09-.09-.27,0-.27.1,0,.17.11.27.13.76.22,1.51.42,2.27.67.79.26,1.65.43,2.41.8.45.23.97.54,1.47.67.25.06.43.05.67.13.06.02.09.09.13.13.09.04.17.11.27.13.09.02.18-.03.27,0,.7.28,1.28.81,2,1.07,1.63.59,3.28,1.11,4.94,1.6.62.18,1.27.3,1.87.53,1.02.39,2.01,1.05,3.07,1.34.26.07.54.06.8.13.58.16,1.18.44,1.74.67.52.21,1.1.32,1.6.53.15.06.26.2.4.27.64.32,1.36.52,2,.8.15.06.26.19.4.27.64.36.93.4,1.74.67h0ZM453.26,946.95s-10.09-12.41-9.64-30.61c.45-18.2,0-13.53,0-13.53v-5.91l-15.09.54-15.09.54-6.23-2.07-6.23-2.07-3.87-3.54-3.87-3.54-3.53-6.02-3.53-6.02-.63-7.89-.63-7.89,1.89-4.53,1.89-4.53,3.93-4.48,3.93-4.48,7.97-3.63,7.97-3.63,7.71-.05,7.71-.05,5.31,3.52,5.31,3.52,3.81,5.26,3.81,5.26,1.99,6.46,1.99,6.46.71,13.65.71,13.65h24.5l7.52,1.96,7.52,1.96,4.15,3.16,4.15,3.16,3.4,5.79,3.4,5.79.98,5.27.98,5.27-1.25,5.91-1.25,5.91-3.74,5.9-3.74,5.9-6.31,3.92-11.12,5.26M488.14,946.5c1.12-.58,3.35-1.73,3.35-1.73l3.94-4.49,3.94-4.49,1.44-5.36,1.44-5.36-.82-5.13-.82-5.13-3.14-5.36-3.14-5.36-5.93-3.48-5.93-3.48-15.56-.52-15.56-.52-.88,3.5-.88,3.5s.53,8.11.8,12.16c.27,4.05-.04,9.03.8,12.16.84,3.14,2.14,4.37,3.2,6.55,1.07,2.18,1.75,4.85,3.2,6.55,1.46,1.7,3.36,2.33,5.04,3.49s3.46,2.78,5.04,3.49c.79.36,1.48.53,2.15.65.67.12,1.31.2,2,.37s1.37.41,2.05.61,1.38.38,2.1.41c.73.03,1.46-.07,2.19-.22.74-.14,1.47-.32,2.21-.43.73-.11,1.51-.17,2.26-.25s1.49-.19,2.14-.4c1.3-.42,2.23-1.15,3.35-1.73h0ZM444.61,876.83l-.64-14.49-3.82-8.16-3.82-8.16-4.13-2.94-4.13-2.94-6.04-.58-6.04-.58-4.91,1.6-4.91,1.6-5.39,3.69-5.39,3.69-2.04,3.95-2.04,3.95.51,8.03.51,8.03,3.77,5.36,3.77,5.36,4.22,2.47,4.22,2.47,4.01.96,4.01.96,14.46.13,14.46.13-.64-14.49Z"/>
    <path id="path1-15" data-name="path1-1" class="st0" d="M469.77,933.66c-1.32-.57-2.94-.89-3.96-1.72-1.02-.84-1.38-1.97-2.07-2.95-.69-.98-1.81-2.12-2.07-2.95s0-1.08,0-1.62-.39-1.23,0-1.62c.39-.39,1.12,0,1.68,0s.76-.4,1.68,0,1.99,2.12,2.98,3.17,1.71,2.62,2.98,3.17c1.27.55,2.65,0,3.98,0s2.86.38,3.98,0c1.12-.38,1.64-1.25,2.46-1.88s2.49-.98,2.46-1.88c-.03-.9-1.27-.85-1.9-1.27s-.78-.93-1.9-1.27-3.17-.01-4.76-.02c-1.59,0-3.45.52-4.76-.02-1.31-.54-1.76-1.76-2.64-2.64s-2.44-1.7-2.64-2.64.49-1.27.73-1.91c.24-.64.73-1.91.73-1.91v-2.39l3.17-1.21,3.17-1.21,3.17,1.21,3.17,1.21v2.44s-2.75.27-4.13.4c-1.38.13-3.52-.27-4.13.4s0,.85,0,1.27-.5.72,0,1.27c.5.55,2.12.23,3.17.34,1.06.11,1.95.18,3.17.34,1.22.16,2.76.45,4.14.67s3.04-.04,4.14.67c1.09.71,1.32,2.02,1.98,3.03.66,1.01,1.94,1.92,1.98,3.03.05,1.11-.96,1.79-1.44,2.69s-.55,1.75-1.44,2.69c-.89.94-2.7,1.64-4.05,2.47s-2.87,2.15-4.05,2.47c-1.17.32-1.69-.03-2.54-.04s-1.42.2-2.54-.04-2.64-1.15-3.96-1.72ZM414.27,882.59l-.85-.85v-12.27h-8.89v-5.08h6.17l2-2,2-2v-7.56l1.94-3.75,1.94-3.75h5.89l1.99,2.22,1.99,2.22.27,1.9.27,1.9-.15,2.22-.15,2.22h-5.08v-6.2l-1.41-.87-1.41-.87-1.11,1.75-1.11,1.75-.02,4.6-.02,4.6,5.08.81,5.08.81v3.51l-2.01.77-2.01.77h-4.87v9.95l-.77,2.01-.77,2.01h-3.11l-.85-.85Z"/>
  </g>
  <g id="g36" data-name="g3">
    <path id="path36" data-name="path3" class="st1" d="M257,295.08c-.9.79-2.04,1.22-3.07,1.74-.33.16-1.26,0-1.6,0-1.42,0-2.74-.15-4.14-.4-.49-.09-.99-.14-1.47-.27-.23-.06-.44-.21-.67-.27-.47-.12-.44-.02-.94-.27-.08-.04-.19.04-.27,0-.85-.43-1.8-.77-2.67-1.2-.39-.19-.77-.58-1.2-.67-.13-.03-.27.04-.4,0-.15-.05-.25-.22-.4-.27-.13-.04-.27.04-.4,0-.15-.05-.26-.2-.4-.27-.52-.26-.34-.01-.94-.27-.15-.06-.25-.2-.4-.27-.48-.21-.98-.35-1.47-.53-.83-.31-.27-.21-1.07-.67-.75-.43-1.62-.81-2.41-1.2-.45-.22-1.24-.57-1.6-.94-.11-.11-.15-.29-.27-.4-.42-.42-.73-.52-1.07-1.07-.11-.17-.15-.37-.27-.53-.27-.38-.59-.52-.8-.94-.11-.22-.34-.43-.4-.67-.07-.26,0-.67,0-.94,0-.09-.09-.27,0-.27.1,0,.17.11.27.13.76.22,1.51.42,2.27.67.79.26,1.65.43,2.41.8.45.23.97.54,1.47.67.25.06.43.05.67.13.06.02.09.09.13.13.09.04.17.11.27.13.09.02.18-.03.27,0,.7.28,1.28.81,2,1.07,1.63.59,3.28,1.11,4.94,1.6.62.18,1.27.3,1.87.53,1.02.39,2.01,1.05,3.07,1.34.26.07.54.06.8.13.58.16,1.18.44,1.74.67.52.21,1.1.32,1.6.53.15.06.26.2.4.27.64.32,1.36.52,2,.8.15.06.26.19.4.27.64.36.93.4,1.74.67h0ZM229.85,287.02s-10.09-12.41-9.64-30.61c.45-18.2,0-13.53,0-13.53v-5.91l-15.09.54-15.09.54-6.23-2.07-6.23-2.07-3.87-3.54-3.87-3.54-3.53-6.02-3.53-6.02-.63-7.89-.63-7.89,1.89-4.53,1.89-4.53,3.93-4.48,3.93-4.48,7.97-3.63,7.97-3.63,7.71-.05,7.71-.05,5.31,3.52,5.31,3.52,3.81,5.26,3.81,5.26,1.99,6.46,1.99,6.46.71,13.65.71,13.65h24.5l7.52,1.96,7.52,1.96,4.15,3.16,4.15,3.16,3.4,5.79,3.4,5.79.98,5.27.98,5.27-1.25,5.91-1.25,5.91-3.74,5.9-3.74,5.9-6.31,3.92-11.12,5.26M264.74,286.58c1.12-.58,3.35-1.73,3.35-1.73l3.94-4.49,3.94-4.49,1.44-5.36,1.44-5.36-.82-5.13-.82-5.13-3.14-5.36-3.14-5.36-5.93-3.48-5.93-3.48-15.56-.52-15.56-.52-.88,3.5-.88,3.5s.53,8.11.8,12.16c.27,4.05-.04,9.03.8,12.16.84,3.14,2.14,4.37,3.2,6.55,1.07,2.18,1.75,4.85,3.2,6.55,1.46,1.7,3.36,2.33,5.04,3.49s3.46,2.78,5.04,3.49c.79.36,1.48.53,2.15.65.67.12,1.31.2,2,.37s1.37.41,2.05.61,1.38.38,2.1.41c.73.03,1.46-.07,2.19-.22.74-.14,1.47-.32,2.21-.43.73-.11,1.51-.17,2.26-.25s1.49-.19,2.14-.4c1.3-.42,2.23-1.15,3.35-1.73h0ZM221.2,216.91l-.64-14.49-3.82-8.16-3.82-8.16-4.13-2.94-4.13-2.94-6.04-.58-6.04-.58-4.91,1.6-4.91,1.6-5.39,3.69-5.39,3.69-2.04,3.95-2.04,3.95.51,8.03.51,8.03,3.77,5.36,3.77,5.36,4.22,2.47,4.22,2.47,4.01.96,4.01.96,14.46.13,14.46.13-.64-14.49Z"/>
    <path id="path1-16" data-name="path1-1" class="st0" d="M246.36,273.74c-1.32-.57-2.94-.89-3.96-1.72-1.02-.84-1.38-1.97-2.07-2.95-.69-.98-1.81-2.12-2.07-2.95s0-1.08,0-1.62-.39-1.23,0-1.62c.39-.39,1.12,0,1.68,0s.76-.4,1.68,0,1.99,2.12,2.98,3.17,1.71,2.62,2.98,3.17c1.27.55,2.65,0,3.98,0s2.86.38,3.98,0c1.12-.38,1.64-1.25,2.46-1.88s2.49-.98,2.46-1.88c-.03-.9-1.27-.85-1.9-1.27s-.78-.93-1.9-1.27-3.17-.01-4.76-.02c-1.59,0-3.45.52-4.76-.02-1.31-.54-1.76-1.76-2.64-2.64s-2.44-1.7-2.64-2.64.49-1.27.73-1.91c.24-.64.73-1.91.73-1.91v-2.39l3.17-1.21,3.17-1.21,3.17,1.21,3.17,1.21v2.44s-2.75.27-4.13.4c-1.38.13-3.52-.27-4.13.4s0,.85,0,1.27-.5.72,0,1.27c.5.55,2.12.23,3.17.34,1.06.11,1.95.18,3.17.34,1.22.16,2.76.45,4.14.67s3.04-.04,4.14.67c1.09.71,1.32,2.02,1.98,3.03.66,1.01,1.94,1.92,1.98,3.03.05,1.11-.96,1.79-1.44,2.69s-.55,1.75-1.44,2.69c-.89.94-2.7,1.64-4.05,2.47s-2.87,2.15-4.05,2.47c-1.17.32-1.69-.03-2.54-.04s-1.42.2-2.54-.04-2.64-1.15-3.96-1.72ZM190.86,222.66l-.85-.85v-12.27h-8.89v-5.08h6.17l2-2,2-2v-7.56l1.94-3.75,1.94-3.75h5.89l1.99,2.22,1.99,2.22.27,1.9.27,1.9-.15,2.22-.15,2.22h-5.08v-6.2l-1.41-.87-1.41-.87-1.11,1.75-1.11,1.75-.02,4.6-.02,4.6,5.08.81,5.08.81v3.51l-2.01.77-2.01.77h-4.87v9.95l-.77,2.01-.77,2.01h-3.11l-.85-.85Z"/>
  </g>
  <g id="g37" data-name="g3">
    <path id="path37" data-name="path3" class="st1" d="M620.95,235.77c-.9.79-2.04,1.22-3.07,1.74-.33.16-1.26,0-1.6,0-1.42,0-2.74-.15-4.14-.4-.49-.09-.99-.14-1.47-.27-.23-.06-.44-.21-.67-.27-.47-.12-.44-.02-.94-.27-.08-.04-.19.04-.27,0-.85-.43-1.8-.77-2.67-1.2-.39-.19-.77-.58-1.2-.67-.13-.03-.27.04-.4,0-.15-.05-.25-.22-.4-.27-.13-.04-.27.04-.4,0-.15-.05-.26-.2-.4-.27-.52-.26-.34-.01-.94-.27-.15-.06-.25-.2-.4-.27-.48-.21-.98-.35-1.47-.53-.83-.31-.27-.21-1.07-.67-.75-.43-1.62-.81-2.41-1.2-.45-.22-1.24-.57-1.6-.94-.11-.11-.15-.29-.27-.4-.42-.42-.73-.52-1.07-1.07-.11-.17-.15-.37-.27-.53-.27-.38-.59-.52-.8-.94-.11-.22-.34-.43-.4-.67-.07-.26,0-.67,0-.94,0-.09-.09-.27,0-.27.1,0,.17.11.27.13.76.22,1.51.42,2.27.67.79.26,1.65.43,2.41.8.45.23.97.54,1.47.67.25.06.43.05.67.13.06.02.09.09.13.13.09.04.17.11.27.13.09.02.18-.03.27,0,.7.28,1.28.81,2,1.07,1.63.59,3.28,1.11,4.94,1.6.62.18,1.27.3,1.87.53,1.02.39,2.01,1.05,3.07,1.34.26.07.54.06.8.13.58.16,1.18.44,1.74.67.52.21,1.1.32,1.6.53.15.06.26.2.4.27.64.32,1.36.52,2,.8.15.06.26.19.4.27.64.36.93.4,1.74.67h0ZM593.81,227.7s-10.09-12.41-9.64-30.61c.45-18.2,0-13.53,0-13.53v-5.91l-15.09.54-15.09.54-6.23-2.07-6.23-2.07-3.87-3.54-3.87-3.54-3.53-6.02-3.53-6.02-.63-7.89-.63-7.89,1.89-4.53,1.89-4.53,3.93-4.48,3.93-4.48,7.97-3.63,7.97-3.63,7.71-.05,7.71-.05,5.31,3.52,5.31,3.52,3.81,5.26,3.81,5.26,1.99,6.46,1.99,6.46.71,13.65.71,13.65h24.5l7.52,1.96,7.52,1.96,4.15,3.16,4.15,3.16,3.4,5.79,3.4,5.79.98,5.27.98,5.27-1.25,5.91-1.25,5.91-3.74,5.9-3.74,5.9-6.31,3.92-11.12,5.26M628.69,227.26c1.12-.58,3.35-1.73,3.35-1.73l3.94-4.49,3.94-4.49,1.44-5.36,1.44-5.36-.82-5.13-.82-5.13-3.14-5.36-3.14-5.36-5.93-3.48-5.93-3.48-15.56-.52-15.56-.52-.88,3.5-.88,3.5s.53,8.11.8,12.16c.27,4.05-.04,9.03.8,12.16.84,3.14,2.14,4.37,3.2,6.55,1.07,2.18,1.75,4.85,3.2,6.55,1.46,1.7,3.36,2.33,5.04,3.49s3.46,2.78,5.04,3.49c.79.36,1.48.53,2.15.65.67.12,1.31.2,2,.37s1.37.41,2.05.61,1.38.38,2.1.41c.73.03,1.46-.07,2.19-.22.74-.14,1.47-.32,2.21-.43.73-.11,1.51-.17,2.26-.25s1.49-.19,2.14-.4c1.3-.42,2.23-1.15,3.35-1.73h0ZM585.15,157.59l-.64-14.49-3.82-8.16-3.82-8.16-4.13-2.94-4.13-2.94-6.04-.58-6.04-.58-4.91,1.6-4.91,1.6-5.39,3.69-5.39,3.69-2.04,3.95-2.04,3.95.51,8.03.51,8.03,3.77,5.36,3.77,5.36,4.22,2.47,4.22,2.47,4.01.96,4.01.96,14.46.13,14.46.13-.64-14.49Z"/>
    <path id="path1-17" data-name="path1-1" class="st0" d="M610.32,214.42c-1.32-.57-2.94-.89-3.96-1.72-1.02-.84-1.38-1.97-2.07-2.95-.69-.98-1.81-2.12-2.07-2.95s0-1.08,0-1.62-.39-1.23,0-1.62c.39-.39,1.12,0,1.68,0s.76-.4,1.68,0,1.99,2.12,2.98,3.17,1.71,2.62,2.98,3.17c1.27.55,2.65,0,3.98,0s2.86.38,3.98,0c1.12-.38,1.64-1.25,2.46-1.88s2.49-.98,2.46-1.88c-.03-.9-1.27-.85-1.9-1.27s-.78-.93-1.9-1.27-3.17-.01-4.76-.02c-1.59,0-3.45.52-4.76-.02-1.31-.54-1.76-1.76-2.64-2.64s-2.44-1.7-2.64-2.64.49-1.27.73-1.91c.24-.64.73-1.91.73-1.91v-2.39l3.17-1.21,3.17-1.21,3.17,1.21,3.17,1.21v2.44s-2.75.27-4.13.4c-1.38.13-3.52-.27-4.13.4s0,.85,0,1.27-.5.72,0,1.27c.5.55,2.12.23,3.17.34,1.06.11,1.95.18,3.17.34,1.22.16,2.76.45,4.14.67s3.04-.04,4.14.67c1.09.71,1.32,2.02,1.98,3.03.66,1.01,1.94,1.92,1.98,3.03.05,1.11-.96,1.79-1.44,2.69s-.55,1.75-1.44,2.69c-.89.94-2.7,1.64-4.05,2.47s-2.87,2.15-4.05,2.47c-1.17.32-1.69-.03-2.54-.04s-1.42.2-2.54-.04-2.64-1.15-3.96-1.72ZM554.82,163.35l-.85-.85v-12.27h-8.89v-5.08h6.17l2-2,2-2v-7.56l1.94-3.75,1.94-3.75h5.89l1.99,2.22,1.99,2.22.27,1.9.27,1.9-.15,2.22-.15,2.22h-5.08v-6.2l-1.41-.87-1.41-.87-1.11,1.75-1.11,1.75-.02,4.6-.02,4.6,5.08.81,5.08.81v3.51l-2.01.77-2.01.77h-4.87v9.95l-.77,2.01-.77,2.01h-3.11l-.85-.85Z"/>
  </g>
  <g id="g38" data-name="g3">
    <path id="path38" data-name="path3" class="st1" d="M744.21,522.14c-.9.79-2.04,1.22-3.07,1.74-.33.16-1.26,0-1.6,0-1.42,0-2.74-.15-4.14-.4-.49-.09-.99-.14-1.47-.27-.23-.06-.44-.21-.67-.27-.47-.12-.44-.02-.94-.27-.08-.04-.19.04-.27,0-.85-.43-1.8-.77-2.67-1.2-.39-.19-.77-.58-1.2-.67-.13-.03-.27.04-.4,0-.15-.05-.25-.22-.4-.27-.13-.04-.27.04-.4,0-.15-.05-.26-.2-.4-.27-.52-.26-.34-.01-.94-.27-.15-.06-.25-.2-.4-.27-.48-.21-.98-.35-1.47-.53-.83-.31-.27-.21-1.07-.67-.75-.43-1.62-.81-2.41-1.2-.45-.22-1.24-.57-1.6-.94-.11-.11-.15-.29-.27-.4-.42-.42-.73-.52-1.07-1.07-.11-.17-.15-.37-.27-.53-.27-.38-.59-.52-.8-.94-.11-.22-.34-.43-.4-.67-.07-.26,0-.67,0-.94,0-.09-.09-.27,0-.27.1,0,.17.11.27.13.76.22,1.51.42,2.27.67.79.26,1.65.43,2.41.8.45.23.97.54,1.47.67.25.06.43.05.67.13.06.02.09.09.13.13.09.04.17.11.27.13.09.02.18-.03.27,0,.7.28,1.28.81,2,1.07,1.63.59,3.28,1.11,4.94,1.6.62.18,1.27.3,1.87.53,1.02.39,2.01,1.05,3.07,1.34.26.07.54.06.8.13.58.16,1.18.44,1.74.67.52.21,1.1.32,1.6.53.15.06.26.2.4.27.64.32,1.36.52,2,.8.15.06.26.19.4.27.64.36.93.4,1.74.67h0ZM717.06,514.08s-10.09-12.41-9.64-30.61c.45-18.2,0-13.53,0-13.53v-5.91l-15.09.54-15.09.54-6.23-2.07-6.23-2.07-3.87-3.54-3.87-3.54-3.53-6.02-3.53-6.02-.63-7.89-.63-7.89,1.89-4.53,1.89-4.53,3.93-4.48,3.93-4.48,7.97-3.63,7.97-3.63,7.71-.05,7.71-.05,5.31,3.52,5.31,3.52,3.81,5.26,3.81,5.26,1.99,6.46,1.99,6.46.71,13.65.71,13.65h24.5l7.52,1.96,7.52,1.96,4.15,3.16,4.15,3.16,3.4,5.79,3.4,5.79.98,5.27.98,5.27-1.25,5.91-1.25,5.91-3.74,5.9-3.74,5.9-6.31,3.92-11.12,5.26M751.95,513.64c1.12-.58,3.35-1.73,3.35-1.73l3.94-4.49,3.94-4.49,1.44-5.36,1.44-5.36-.82-5.13-.82-5.13-3.14-5.36-3.14-5.36-5.93-3.48-5.93-3.48-15.56-.52-15.56-.52-.88,3.5-.88,3.5s.53,8.11.8,12.16c.27,4.05-.04,9.03.8,12.16.84,3.14,2.14,4.37,3.2,6.55,1.07,2.18,1.75,4.85,3.2,6.55,1.46,1.7,3.36,2.33,5.04,3.49s3.46,2.78,5.04,3.49c.79.36,1.48.53,2.15.65.67.12,1.31.2,2,.37s1.37.41,2.05.61,1.38.38,2.1.41c.73.03,1.46-.07,2.19-.22.74-.14,1.47-.32,2.21-.43.73-.11,1.51-.17,2.26-.25s1.49-.19,2.14-.4c1.3-.42,2.23-1.15,3.35-1.73h0ZM708.41,443.96l-.64-14.49-3.82-8.16-3.82-8.16-4.13-2.94-4.13-2.94-6.04-.58-6.04-.58-4.91,1.6-4.91,1.6-5.39,3.69-5.39,3.69-2.04,3.95-2.04,3.95.51,8.03.51,8.03,3.77,5.36,3.77,5.36,4.22,2.47,4.22,2.47,4.01.96,4.01.96,14.46.13,14.46.13-.64-14.49Z"/>
    <path id="path1-18" data-name="path1-1" class="st0" d="M733.57,500.8c-1.32-.57-2.94-.89-3.96-1.72-1.02-.84-1.38-1.97-2.07-2.95-.69-.98-1.81-2.12-2.07-2.95s0-1.08,0-1.62-.39-1.23,0-1.62c.39-.39,1.12,0,1.68,0s.76-.4,1.68,0,1.99,2.12,2.98,3.17,1.71,2.62,2.98,3.17c1.27.55,2.65,0,3.98,0s2.86.38,3.98,0c1.12-.38,1.64-1.25,2.46-1.88s2.49-.98,2.46-1.88c-.03-.9-1.27-.85-1.9-1.27s-.78-.93-1.9-1.27-3.17-.01-4.76-.02c-1.59,0-3.45.52-4.76-.02-1.31-.54-1.76-1.76-2.64-2.64s-2.44-1.7-2.64-2.64.49-1.27.73-1.91c.24-.64.73-1.91.73-1.91v-2.39l3.17-1.21,3.17-1.21,3.17,1.21,3.17,1.21v2.44s-2.75.27-4.13.4c-1.38.13-3.52-.27-4.13.4s0,.85,0,1.27-.5.72,0,1.27c.5.55,2.12.23,3.17.34,1.06.11,1.95.18,3.17.34,1.22.16,2.76.45,4.14.67s3.04-.04,4.14.67c1.09.71,1.32,2.02,1.98,3.03.66,1.01,1.94,1.92,1.98,3.03.05,1.11-.96,1.79-1.44,2.69s-.55,1.75-1.44,2.69c-.89.94-2.7,1.64-4.05,2.47s-2.87,2.15-4.05,2.47c-1.17.32-1.69-.03-2.54-.04s-1.42.2-2.54-.04-2.64-1.15-3.96-1.72ZM678.07,449.72l-.85-.85v-12.27h-8.89v-5.08h6.17l2-2,2-2v-7.56l1.94-3.75,1.94-3.75h5.89l1.99,2.22,1.99,2.22.27,1.9.27,1.9-.15,2.22-.15,2.22h-5.08v-6.2l-1.41-.87-1.41-.87-1.11,1.75-1.11,1.75-.02,4.6-.02,4.6,5.08.81,5.08.81v3.51l-2.01.77-2.01.77h-4.87v9.95l-.77,2.01-.77,2.01h-3.11l-.85-.85Z"/>
  </g>
  <g id="g39" data-name="g3">
    <path id="path39" data-name="path3" class="st1" d="M230.15,714.96c-.9.79-2.04,1.22-3.07,1.74-.33.16-1.26,0-1.6,0-1.42,0-2.74-.15-4.14-.4-.49-.09-.99-.14-1.47-.27-.23-.06-.44-.21-.67-.27-.47-.12-.44-.02-.94-.27-.08-.04-.19.04-.27,0-.85-.43-1.8-.77-2.67-1.2-.39-.19-.77-.58-1.2-.67-.13-.03-.27.04-.4,0-.15-.05-.25-.22-.4-.27-.13-.04-.27.04-.4,0-.15-.05-.26-.2-.4-.27-.52-.26-.34-.01-.94-.27-.15-.06-.25-.2-.4-.27-.48-.21-.98-.35-1.47-.53-.83-.31-.27-.21-1.07-.67-.75-.43-1.62-.81-2.41-1.2-.45-.22-1.24-.57-1.6-.94-.11-.11-.15-.29-.27-.4-.42-.42-.73-.52-1.07-1.07-.11-.17-.15-.37-.27-.53-.27-.38-.59-.52-.8-.94-.11-.22-.34-.43-.4-.67-.07-.26,0-.67,0-.94,0-.09-.09-.27,0-.27.1,0,.17.11.27.13.76.22,1.51.42,2.27.67.79.26,1.65.43,2.41.8.45.23.97.54,1.47.67.25.06.43.05.67.13.06.02.09.09.13.13.09.04.17.11.27.13.09.02.18-.03.27,0,.7.28,1.28.81,2,1.07,1.63.59,3.28,1.11,4.94,1.6.62.18,1.27.3,1.87.53,1.02.39,2.01,1.05,3.07,1.34.26.07.54.06.8.13.58.16,1.18.44,1.74.67.52.21,1.1.32,1.6.53.15.06.26.2.4.27.64.32,1.36.52,2,.8.15.06.26.19.4.27.64.36.93.4,1.74.67h0ZM203,706.9s-10.09-12.41-9.64-30.61c.45-18.2,0-13.53,0-13.53v-5.91l-15.09.54-15.09.54-6.23-2.07-6.23-2.07-3.87-3.54-3.87-3.54-3.53-6.02-3.53-6.02-.63-7.89-.63-7.89,1.89-4.53,1.89-4.53,3.93-4.48,3.93-4.48,7.97-3.63,7.97-3.63,7.71-.05,7.71-.05,5.31,3.52,5.31,3.52,3.81,5.26,3.81,5.26,1.99,6.46,1.99,6.46.71,13.65.71,13.65h24.5l7.52,1.96,7.52,1.96,4.15,3.16,4.15,3.16,3.4,5.79,3.4,5.79.98,5.27.98,5.27-1.25,5.91-1.25,5.91-3.74,5.9-3.74,5.9-6.31,3.92-11.12,5.26M237.88,706.46c1.12-.58,3.35-1.73,3.35-1.73l3.94-4.49,3.94-4.49,1.44-5.36,1.44-5.36-.82-5.13-.82-5.13-3.14-5.36-3.14-5.36-5.93-3.48-5.93-3.48-15.56-.52-15.56-.52-.88,3.5-.88,3.5s.53,8.11.8,12.16c.27,4.05-.04,9.03.8,12.16.84,3.14,2.14,4.37,3.2,6.55,1.07,2.18,1.75,4.85,3.2,6.55,1.46,1.7,3.36,2.33,5.04,3.49s3.46,2.78,5.04,3.49c.79.36,1.48.53,2.15.65.67.12,1.31.2,2,.37s1.37.41,2.05.61,1.38.38,2.1.41c.73.03,1.46-.07,2.19-.22.74-.14,1.47-.32,2.21-.43.73-.11,1.51-.17,2.26-.25s1.49-.19,2.14-.4c1.3-.42,2.23-1.15,3.35-1.73h0ZM194.35,636.78l-.64-14.49-3.82-8.16-3.82-8.16-4.13-2.94-4.13-2.94-6.04-.58-6.04-.58-4.91,1.6-4.91,1.6-5.39,3.69-5.39,3.69-2.04,3.95-2.04,3.95.51,8.03.51,8.03,3.77,5.36,3.77,5.36,4.22,2.47,4.22,2.47,4.01.96,4.01.96,14.46.13,14.46.13-.64-14.49Z"/>
    <path id="path1-19" data-name="path1-1" class="st0" d="M219.51,693.62c-1.32-.57-2.94-.89-3.96-1.72-1.02-.84-1.38-1.97-2.07-2.95-.69-.98-1.81-2.12-2.07-2.95s0-1.08,0-1.62-.39-1.23,0-1.62c.39-.39,1.12,0,1.68,0s.76-.4,1.68,0,1.99,2.12,2.98,3.17,1.71,2.62,2.98,3.17c1.27.55,2.65,0,3.98,0s2.86.38,3.98,0c1.12-.38,1.64-1.25,2.46-1.88s2.49-.98,2.46-1.88c-.03-.9-1.27-.85-1.9-1.27s-.78-.93-1.9-1.27-3.17-.01-4.76-.02c-1.59,0-3.45.52-4.76-.02-1.31-.54-1.76-1.76-2.64-2.64s-2.44-1.7-2.64-2.64.49-1.27.73-1.91c.24-.64.73-1.91.73-1.91v-2.39l3.17-1.21,3.17-1.21,3.17,1.21,3.17,1.21v2.44s-2.75.27-4.13.4c-1.38.13-3.52-.27-4.13.4s0,.85,0,1.27-.5.72,0,1.27c.5.55,2.12.23,3.17.34,1.06.11,1.95.18,3.17.34,1.22.16,2.76.45,4.14.67s3.04-.04,4.14.67c1.09.71,1.32,2.02,1.98,3.03.66,1.01,1.94,1.92,1.98,3.03.05,1.11-.96,1.79-1.44,2.69s-.55,1.75-1.44,2.69c-.89.94-2.7,1.64-4.05,2.47s-2.87,2.15-4.05,2.47c-1.17.32-1.69-.03-2.54-.04s-1.42.2-2.54-.04-2.64-1.15-3.96-1.72ZM164.01,642.54l-.85-.85v-12.27h-8.89v-5.08h6.17l2-2,2-2v-7.56l1.94-3.75,1.94-3.75h5.89l1.99,2.22,1.99,2.22.27,1.9.27,1.9-.15,2.22-.15,2.22h-5.08v-6.2l-1.41-.87-1.41-.87-1.11,1.75-1.11,1.75-.02,4.6-.02,4.6,5.08.81,5.08.81v3.51l-2.01.77-2.01.77h-4.87v9.95l-.77,2.01-.77,2.01h-3.11l-.85-.85Z"/>
  </g>
  <g id="g310" data-name="g3">
    <path id="path310" data-name="path3" class="st1" d="M951.85,847.03c-.9.79-2.04,1.22-3.07,1.74-.33.16-1.26,0-1.6,0-1.42,0-2.74-.15-4.14-.4-.49-.09-.99-.14-1.47-.27-.23-.06-.44-.21-.67-.27-.47-.12-.44-.02-.94-.27-.08-.04-.19.04-.27,0-.85-.43-1.8-.77-2.67-1.2-.39-.19-.77-.58-1.2-.67-.13-.03-.27.04-.4,0-.15-.05-.25-.22-.4-.27-.13-.04-.27.04-.4,0-.15-.05-.26-.2-.4-.27-.52-.26-.34-.01-.94-.27-.15-.06-.25-.2-.4-.27-.48-.21-.98-.35-1.47-.53-.83-.31-.27-.21-1.07-.67-.75-.43-1.62-.81-2.41-1.2-.45-.22-1.24-.57-1.6-.94-.11-.11-.15-.29-.27-.4-.42-.42-.73-.52-1.07-1.07-.11-.17-.15-.37-.27-.53-.27-.38-.59-.52-.8-.94-.11-.22-.34-.43-.4-.67-.07-.26,0-.67,0-.94,0-.09-.09-.27,0-.27.1,0,.17.11.27.13.76.22,1.51.42,2.27.67.79.26,1.65.43,2.41.8.45.23.97.54,1.47.67.25.06.43.05.67.13.06.02.09.09.13.13.09.04.17.11.27.13.09.02.18-.03.27,0,.7.28,1.28.81,2,1.07,1.63.59,3.28,1.11,4.94,1.6.62.18,1.27.3,1.87.53,1.02.39,2.01,1.05,3.07,1.34.26.07.54.06.8.13.58.16,1.18.44,1.74.67.52.21,1.1.32,1.6.53.15.06.26.2.4.27.64.32,1.36.52,2,.8.15.06.26.19.4.27.64.36.93.4,1.74.67h0ZM924.7,838.97s-10.09-12.41-9.64-30.61c.45-18.2,0-13.53,0-13.53v-5.91l-15.09.54-15.09.54-6.23-2.07-6.23-2.07-3.87-3.54-3.87-3.54-3.53-6.02-3.53-6.02-.63-7.89-.63-7.89,1.89-4.53,1.89-4.53,3.93-4.48,3.93-4.48,7.97-3.63,7.97-3.63,7.71-.05,7.71-.05,5.31,3.52,5.31,3.52,3.81,5.26,3.81,5.26,1.99,6.46,1.99,6.46.71,13.65.71,13.65h24.5l7.52,1.96,7.52,1.96,4.15,3.16,4.15,3.16,3.4,5.79,3.4,5.79.98,5.27.98,5.27-1.25,5.91-1.25,5.91-3.74,5.9-3.74,5.9-6.31,3.92-11.12,5.26M959.58,838.53c1.12-.58,3.35-1.73,3.35-1.73l3.94-4.49,3.94-4.49,1.44-5.36,1.44-5.36-.82-5.13-.82-5.13-3.14-5.36-3.14-5.36-5.93-3.48-5.93-3.48-15.56-.52-15.56-.52-.88,3.5-.88,3.5s.53,8.11.8,12.16c.27,4.05-.04,9.03.8,12.16.84,3.14,2.14,4.37,3.2,6.55,1.07,2.18,1.75,4.85,3.2,6.55,1.46,1.7,3.36,2.33,5.04,3.49s3.46,2.78,5.04,3.49c.79.36,1.48.53,2.15.65.67.12,1.31.2,2,.37s1.37.41,2.05.61,1.38.38,2.1.41c.73.03,1.46-.07,2.19-.22.74-.14,1.47-.32,2.21-.43.73-.11,1.51-.17,2.26-.25s1.49-.19,2.14-.4c1.3-.42,2.23-1.15,3.35-1.73h0ZM916.04,768.85l-.64-14.49-3.82-8.16-3.82-8.16-4.13-2.94-4.13-2.94-6.04-.58-6.04-.58-4.91,1.6-4.91,1.6-5.39,3.69-5.39,3.69-2.04,3.95-2.04,3.95.51,8.03.51,8.03,3.77,5.36,3.77,5.36,4.22,2.47,4.22,2.47,4.01.96,4.01.96,14.46.13,14.46.13-.64-14.49Z"/>
    <path id="path1-110" data-name="path1-1" class="st0" d="M941.21,825.69c-1.32-.57-2.94-.89-3.96-1.72-1.02-.84-1.38-1.97-2.07-2.95-.69-.98-1.81-2.12-2.07-2.95s0-1.08,0-1.62-.39-1.23,0-1.62c.39-.39,1.12,0,1.68,0s.76-.4,1.68,0,1.99,2.12,2.98,3.17,1.71,2.62,2.98,3.17c1.27.55,2.65,0,3.98,0s2.86.38,3.98,0c1.12-.38,1.64-1.25,2.46-1.88s2.49-.98,2.46-1.88c-.03-.9-1.27-.85-1.9-1.27s-.78-.93-1.9-1.27-3.17-.01-4.76-.02c-1.59,0-3.45.52-4.76-.02-1.31-.54-1.76-1.76-2.64-2.64s-2.44-1.7-2.64-2.64.49-1.27.73-1.91c.24-.64.73-1.91.73-1.91v-2.39l3.17-1.21,3.17-1.21,3.17,1.21,3.17,1.21v2.44s-2.75.27-4.13.4c-1.38.13-3.52-.27-4.13.4s0,.85,0,1.27-.5.72,0,1.27c.5.55,2.12.23,3.17.34,1.06.11,1.95.18,3.17.34,1.22.16,2.76.45,4.14.67s3.04-.04,4.14.67c1.09.71,1.32,2.02,1.98,3.03.66,1.01,1.94,1.92,1.98,3.03.05,1.11-.96,1.79-1.44,2.69s-.55,1.75-1.44,2.69c-.89.94-2.7,1.64-4.05,2.47s-2.87,2.15-4.05,2.47c-1.17.32-1.69-.03-2.54-.04s-1.42.2-2.54-.04-2.64-1.15-3.96-1.72ZM885.71,774.61l-.85-.85v-12.27h-8.89v-5.08h6.17l2-2,2-2v-7.56l1.94-3.75,1.94-3.75h5.89l1.99,2.22,1.99,2.22.27,1.9.27,1.9-.15,2.22-.15,2.22h-5.08v-6.2l-1.41-.87-1.41-.87-1.11,1.75-1.11,1.75-.02,4.6-.02,4.6,5.08.81,5.08.81v3.51l-2.01.77-2.01.77h-4.87v9.95l-.77,2.01-.77,2.01h-3.11l-.85-.85Z"/>
  </g>
</svg>