<?xml version="1.0" encoding="UTF-8" standalone="no"?>
<!-- Created with Inkscape (http://www.inkscape.org/) -->

<svg
   width="25mm"
   height="20.719999mm"
   viewBox="0 0 25 20.719999"
   version="1.1"
   id="svg1"
   inkscape:version="1.4.2 (ebf0e940d0, 2025-05-08)"
   sodipodi:docname="fire.svg"
   xmlns:inkscape="http://www.inkscape.org/namespaces/inkscape"
   xmlns:sodipodi="http://sodipodi.sourceforge.net/DTD/sodipodi-0.dtd"
   xmlns="http://www.w3.org/2000/svg"
   xmlns:svg="http://www.w3.org/2000/svg">
  <sodipodi:namedview
     id="namedview1"
     pagecolor="#ffffff"
     bordercolor="#000000"
     borderopacity="0.25"
     inkscape:showpageshadow="2"
     inkscape:pageopacity="0.0"
     inkscape:pagecheckerboard="0"
     inkscape:deskcolor="#d1d1d1"
     inkscape:document-units="mm"
     inkscape:zoom="0.7198092"
     inkscape:cx="396.63288"
     inkscape:cy="338.97872"
     inkscape:window-width="1920"
     inkscape:window-height="1011"
     inkscape:window-x="0"
     inkscape:window-y="32"
     inkscape:window-maximized="1"
     inkscape:current-layer="fire"
     showborder="false" />
  <defs
     id="defs1" />
  <g
     inkscape:label="fire"
     inkscape:groupmode="layer"
     id="fire"
     transform="matrix(1.0109144,0,0,1.0108017,-93.88237,-139.87189)">
    <path
       id="bg"
       style="display:inline;fill:#ffff00;fill-opacity:1;stroke-width:0.0661458"
       d="m 103.62852,150.59596 c -0.0623,-0.0728 -0.15821,-0.13229 -0.21313,-0.13229 -0.0549,0 -0.10289,-0.0521 -0.10657,-0.11575 -0.0152,-0.26292 0.0227,-0.58328 0.0769,-0.64918 0.0343,-0.0417 0.0104,-0.20355 -0.0586,-0.39688 l -0.11651,-0.32647 -0.37749,-0.0198 c -0.35663,-0.0187 -0.37749,-0.0293 -0.37749,-0.19063 0,-0.1095 -0.0831,-0.24914 -0.23151,-0.38913 -0.12733,-0.12009 -0.23151,-0.2501 -0.23151,-0.28893 0,-0.0444 0.20594,-0.0706 0.55544,-0.0706 0.51023,0 0.57214,-0.0146 0.76068,-0.18009 0.11498,-0.1009 0.20524,-0.24532 0.20524,-0.3284 0,-0.0816 0.0595,-0.18017 0.13229,-0.21911 0.0728,-0.0389 0.13229,-0.10164 0.13229,-0.13934 0,-0.0377 0.0447,-0.11328 0.0994,-0.16795 0.0884,-0.0884 0.10381,-0.0879 0.13937,0.005 0.031,0.0808 0.14207,0.10414 0.4959,0.10414 0.25077,0 0.45595,0.025 0.45595,0.0555 0,0.0899 0.31909,0.20906 0.55994,0.20906 0.2884,0 0.43224,-0.0574 0.43224,-0.17244 0,-0.0612 0.0777,-0.0921 0.23151,-0.0921 0.16169,0 0.23151,-0.0299 0.23151,-0.0992 0,-0.0612 0.0621,-0.0992 0.16208,-0.0992 0.0891,0 0.18588,-0.0394 0.21498,-0.0877 0.0291,-0.0482 0.10498,-0.10682 0.16865,-0.13022 0.0637,-0.0234 0.11575,-0.0881 0.11575,-0.14384 0,-0.0557 0.0372,-0.10181 0.0827,-0.10244 0.10084,-10e-4 0.38034,-0.2869 0.38034,-0.38851 0,-0.0403 0.0447,-0.0734 0.0992,-0.0734 0.12627,0 0.12483,0.0606 -0.008,0.32632 -0.13858,0.27777 -0.0983,0.91743 0.0634,1.00795 0.15008,0.084 0.13791,0.23041 -0.0226,0.27239 -0.0728,0.019 -0.13229,0.082 -0.13229,0.14001 0,0.058 -0.0447,0.10541 -0.0992,0.10541 -0.0799,0 -0.0992,0.10289 -0.0992,0.52917 0,0.4751 -0.0128,0.52916 -0.12521,0.52916 -0.0689,0 -0.14235,-0.0446 -0.16329,-0.0992 -0.0614,-0.1599 -0.7338,-0.13524 -0.90212,0.0331 -0.0728,0.0728 -0.13229,0.17694 -0.13229,0.23151 0,0.075 -0.0808,0.0992 -0.33073,0.0992 -0.43627,0 -0.59531,0.1502 -0.59531,0.56224 v 0.29765 h -0.30385 c -0.24822,0 -0.31019,0.0242 -0.33845,0.13229 -0.019,0.0728 -0.0758,0.1323 -0.1261,0.1323 -0.0503,0 -0.0915,0.0446 -0.0915,0.0992 0,0.0546 -0.0524,0.0992 -0.11638,0.0992 -0.064,0 -0.15356,0.0595 -0.199,0.1323 -0.0454,0.0728 -0.10551,0.13229 -0.1335,0.13229 -0.028,0 -0.10186,-0.0595 -0.16416,-0.13229 z m -1.43748,5.04031 c 0,-0.80753 -0.026,-1.33572 -0.0679,-1.37759 -0.0373,-0.0373 -0.0856,-0.22933 -0.10715,-0.42664 -0.0216,-0.1973 -0.076,-0.38861 -0.12091,-0.42513 -0.0449,-0.0365 -0.10512,-0.1407 -0.13379,-0.23151 -0.0598,-0.18934 -0.29622,-0.45994 -0.40335,-0.46163 -0.0398,-5.3e-4 -0.1263,-0.0607 -0.19215,-0.13343 -0.10259,-0.11337 -0.20373,-0.13229 -0.70686,-0.13229 -0.45711,0 -0.595448,0.0217 -0.624669,0.0978 -0.02241,0.0584 -0.168193,0.11514 -0.361725,0.14081 -0.209629,0.0278 -0.324194,0.0751 -0.324194,0.13371 0,0.0596 -0.07949,0.0907 -0.23151,0.0907 -0.16169,0 -0.231511,0.0299 -0.231511,0.0992 0,0.0546 -0.0571,0.0992 -0.126881,0.0992 -0.197149,0 -0.33614,0.0713 -0.33614,0.17245 0,0.0507 -0.04465,0.0921 -0.09922,0.0921 -0.05457,0 -0.09922,0.0447 -0.09922,0.0992 0,0.0563 -0.05932,0.0992 -0.137017,0.0992 -0.122031,0 -0.126122,-0.0109 -0.03741,-0.0996 0.05479,-0.0548 0.118449,-0.15896 0.141475,-0.23151 0.02302,-0.0725 0.06827,-0.1319 0.100555,-0.1319 0.03228,0 0.07785,-0.10212 0.101261,-0.22692 0.02342,-0.12482 0.0843,-0.24294 0.13529,-0.26251 0.051,-0.0196 0.09272,-0.11186 0.09272,-0.2051 0,-0.0932 0.04283,-0.18595 0.09518,-0.20604 0.05235,-0.0201 0.113696,-0.12084 0.136334,-0.22391 0.02265,-0.10306 0.08733,-0.2051 0.143754,-0.22675 0.08272,-0.0317 0.09758,-0.12826 0.07668,-0.49807 -0.01426,-0.25228 -0.0449,-0.47768 -0.0681,-0.50088 -0.0232,-0.0232 -0.170688,-0.0594 -0.327745,-0.0805 -0.157059,-0.0211 -0.325355,-0.0781 -0.373991,-0.12673 -0.06436,-0.0644 -0.334695,-0.0905 -0.993209,-0.0961 -0.497628,-0.004 -0.852691,-0.0213 -0.789024,-0.0379 0.06366,-0.0166 0.115755,-0.0727 0.115755,-0.12461 0,-0.0712 0.09682,-0.0944 0.393589,-0.0944 0.270065,0 0.410189,-0.0293 0.446484,-0.0935 0.02909,-0.0514 0.142192,-0.10351 0.251333,-0.11576 l 0.198438,-0.0223 0.01934,-0.51363 c 0.01558,-0.41408 -5.3e-4,-0.52122 -0.08268,-0.55278 -0.05611,-0.0215 -0.102018,-0.11316 -0.102018,-0.20363 0,-0.10885 -0.04474,-0.17618 -0.132291,-0.19907 -0.08622,-0.0225 -0.132292,-0.0902 -0.132292,-0.19432 0,-0.0879 -0.04465,-0.17686 -0.09922,-0.1978 -0.05457,-0.021 -0.09922,-0.0723 -0.09922,-0.11414 0,-0.0418 -0.104179,-0.17167 -0.23151,-0.28854 -0.127331,-0.11685 -0.23151,-0.24315 -0.23151,-0.28066 0,-0.0375 -0.04465,-0.0682 -0.09922,-0.0682 -0.05457,0 -0.09922,-0.0442 -0.09922,-0.0982 0,-0.0785 -0.495363,-0.60737 -1.188005,-1.26842 -0.197986,-0.18895 -0.383578,-0.41468 -0.420881,-0.51189 -0.02233,-0.0582 -0.07131,-0.10582 -0.108831,-0.10582 -0.03752,0 -0.06822,-0.0282 -0.06822,-0.0627 0,-0.0868 -0.297723,-0.40028 -0.380209,-0.40028 -0.03706,0 -0.08295,-0.0595 -0.101979,-0.13229 -0.03187,-0.12188 -0.0021,-0.1323 0.37891,-0.1323 0.329499,0 0.437825,0.0269 0.533226,0.1323 0.09385,0.1037 0.203726,0.13229 0.50842,0.13229 0.284491,0 0.398907,0.0266 0.426773,0.0992 0.02651,0.0691 0.134268,0.0992 0.35465,0.0992 0.205724,0 0.32865,0.0315 0.351057,0.0898 0.01897,0.0494 0.15987,0.10991 0.313119,0.13442 0.153249,0.0245 0.341016,0.0883 0.417261,0.14165 0.07624,0.0534 0.277643,0.0971 0.447559,0.0971 0.21359,0 0.320685,0.0306 0.347006,0.0992 0.02947,0.0768 0.15812,0.0992 0.569317,0.0992 0.420764,0 0.531244,0.02 0.531244,0.0962 0,0.0578 0.09358,0.11378 0.234577,0.14023 0.261114,0.049 0.931345,0.009 1.000145,-0.0601 0.0243,-0.0243 0.058,-0.20971 0.0747,-0.41194 0.0276,-0.33245 0.017,-0.37122 -0.11032,-0.40451 -0.0774,-0.0202 -0.14081,-0.0875 -0.14081,-0.14947 0,-0.062 -0.067,-0.17435 -0.14883,-0.24975 -0.354695,-0.32674 -0.975648,-1.01028 -0.975648,-1.07399 0,-0.10742 0.245586,-0.0822 0.288502,0.0297 0.02183,0.0569 0.120586,0.0992 0.23151,0.0992 0.110927,0 0.209676,0.0423 0.231506,0.0992 0.021,0.0546 0.11852,0.0992 0.21685,0.0992 0.0983,0 0.23089,0.0472 0.29459,0.10482 0.0637,0.0576 0.23677,0.12105 0.38457,0.14087 0.1478,0.0198 0.30259,0.0768 0.34396,0.12669 0.10865,0.13091 0.72049,0.12363 0.72049,-0.009 0,-0.0546 0.0447,-0.0992 0.0992,-0.0992 0.0546,0 0.0992,-0.0474 0.0992,-0.10532 0,-0.0579 0.0595,-0.181 0.13229,-0.2735 0.0853,-0.10838 0.13229,-0.26834 0.13229,-0.44984 0,-0.18935 0.0325,-0.29414 0.0992,-0.31974 0.0686,-0.0263 0.0999,-0.13568 0.10132,-0.35434 10e-4,-0.17395 0.0458,-0.37405 0.0992,-0.44466 0.071,-0.0939 0.0974,-0.31626 0.098,-0.82683 5.3e-4,-0.38413 0.0192,-0.76661 0.0415,-0.84995 0.0471,-0.17586 0.17894,-0.16043 0.21123,0.0247 0.0122,0.0697 0.0587,0.15657 0.10332,0.19295 0.0447,0.0364 0.10075,0.11824 0.12464,0.18191 0.0239,0.0637 0.089,0.11575 0.14472,0.11575 0.0685,0 0.1013,0.0643 0.1013,0.19844 0,0.13229 0.0331,0.19844 0.0992,0.19844 0.0662,0 0.0992,0.0662 0.0992,0.19867 0,0.10927 0.0595,0.30975 0.13229,0.44551 0.0728,0.13575 0.13229,0.28129 0.13229,0.32341 0,0.0421 0.0446,0.0937 0.0992,0.11466 0.0546,0.0209 0.0992,0.0805 0.0992,0.13229 0,0.0518 0.0446,0.11135 0.0992,0.13229 0.07,0.0269 0.0992,0.13614 0.0992,0.37153 0,0.2516 0.0325,0.36125 0.1323,0.44672 0.0728,0.0623 0.13229,0.15131 0.13229,0.19779 0,0.0465 0.0559,0.0845 0.12419,0.0845 0.0683,0 0.16125,0.0446 0.20654,0.0992 0.0453,0.0546 0.18517,0.0992 0.31084,0.0992 0.26464,0 0.6152,-0.29864 0.6152,-0.52408 0,-0.078 0.0429,-0.13738 0.0992,-0.13738 0.0546,0 0.0992,-0.0412 0.0992,-0.0915 0,-0.0503 0.0595,-0.10707 0.13229,-0.1261 0.0894,-0.0234 0.13229,-0.0902 0.13229,-0.20616 0,-0.10481 0.0369,-0.17155 0.0948,-0.17155 0.0521,0 0.11366,-0.0595 0.13675,-0.13229 0.0231,-0.0728 0.0952,-0.1323 0.16016,-0.1323 0.12691,0 0.42531,-0.24619 0.48658,-0.40145 0.0205,-0.0521 0.0397,0.26999 0.0426,0.71565 l 0.005,0.81028 h 0.56224 c 0.44789,0 0.56224,0.0196 0.56224,0.0962 0,0.0576 -0.0929,0.11366 -0.23151,0.13966 -0.13259,0.0249 -0.23151,0.0827 -0.23151,0.13529 0,0.0534 -0.0679,0.0918 -0.16208,0.0918 -0.0891,0 -0.18588,0.0395 -0.21497,0.0877 -0.0291,0.0482 -0.10499,0.10682 -0.16865,0.13022 -0.0637,0.0234 -0.11576,0.0881 -0.11576,0.14384 0,0.0557 -0.0456,0.1013 -0.1013,0.1013 -0.0557,0 -0.11842,0.0446 -0.13936,0.0992 -0.021,0.0546 -0.0795,0.0992 -0.13022,0.0992 -0.0507,0 -0.0921,0.0446 -0.0921,0.0992 0,0.0546 -0.0446,0.0992 -0.0992,0.0992 -0.0546,0 -0.15231,0.0521 -0.2172,0.11576 -0.0649,0.0637 -0.2167,0.1515 -0.33737,0.19519 l -0.21938,0.0795 0.0298,-0.27789 c 0.0396,-0.36931 -0.19135,-0.70782 -0.4829,-0.70782 -0.12142,0 -0.19508,0.0343 -0.19508,0.091 0,0.05 -0.0885,0.10865 -0.19667,0.13028 -0.14551,0.0291 -0.20804,0.0872 -0.24039,0.22325 -0.0241,0.10114 -0.0805,0.22855 -0.12543,0.28312 -0.0449,0.0546 -0.0981,0.14387 -0.11818,0.19844 -0.0201,0.0546 -0.0388,-0.0241 -0.0417,-0.17482 -0.003,-0.17889 -0.0397,-0.28727 -0.10444,-0.31212 -0.0739,-0.0284 -0.0992,-0.14611 -0.0992,-0.46118 0,-0.32294 -0.0313,-0.46291 -0.13229,-0.59128 -0.0728,-0.0925 -0.13229,-0.18849 -0.13229,-0.2133 0,-0.0248 -0.067,-0.10098 -0.14883,-0.16926 -0.18574,-0.15495 -0.64491,-0.17584 -0.64491,-0.0293 0,0.0594 -0.061,0.0992 -0.15214,0.0992 -0.26966,0 -0.31089,0.11472 -0.31089,0.86503 0,0.54711 -0.0224,0.72483 -0.0992,0.78862 -0.0546,0.0453 -0.0992,0.18749 -0.0992,0.31601 0,0.22218 -0.006,0.22828 -0.12097,0.12419 -0.0727,-0.0658 -0.23337,-0.10947 -0.40281,-0.10947 -0.38615,0 -0.66685,0.25746 -0.66685,0.61163 v 0.24826 l -0.34726,-0.002 c -0.19988,-0.001 -0.40177,-0.0433 -0.47567,-0.0992 -0.21104,-0.15963 -1.221881,-0.13244 -1.556278,0.0419 l -0.26662,0.13897 v 0.52249 c 0,0.4025 0.02117,0.52249 0.09214,0.52249 0.05068,0 0.109275,0.0447 0.130214,0.0992 0.02096,0.0546 0.08366,0.0992 0.13937,0.0992 0.05571,0 0.101809,0.0372 0.102438,0.0827 0.0013,0.0972 0.285327,0.38034 0.381442,0.38034 0.03646,0 0.08253,0.0423 0.102386,0.0941 0.01987,0.0517 0.104595,0.10384 0.188298,0.11575 0.21843,0.0311 0.24653,0.25318 0.0321,0.25318 -0.09036,0 -0.286015,0.0797 -0.434801,0.17711 -0.238521,0.15617 -0.270518,0.20702 -0.270518,0.42995 0,0.18065 0.02833,0.25284 0.09922,0.25284 0.06929,0 0.09922,0.0698 0.09922,0.23151 v 0.23151 h 0.555159 c 0.43246,0 0.56358,0.0219 0.59324,0.0992 0.0222,0.058 0.12137,0.0992 0.23858,0.0992 0.15642,0 0.20052,0.0291 0.20052,0.1323 0,0.0931 -0.0441,0.13229 -0.14905,0.13229 -0.17636,0 -0.51241,0.3327 -0.51241,0.50731 0,0.0673 -0.0595,0.1595 -0.13229,0.20494 -0.19064,0.11905 -0.16917,0.42335 0.0485,0.68827 0.25387,0.30891 0.27163,0.31712 0.68852,0.31826 0.27145,7.9e-4 0.38365,-0.0261 0.41134,-0.0982 0.0237,-0.0617 0.12452,-0.0992 0.26693,-0.0992 0.12588,0 0.27351,-0.0446 0.32808,-0.0992 0.0546,-0.0546 0.16088,-0.0992 0.23624,-0.0992 0.12702,0 0.13701,0.0381 0.13701,0.52209 0,0.40306 0.0226,0.53077 0.0992,0.56017 0.0683,0.0262 0.0992,0.13288 0.0992,0.34215 0,0.48477 0.071,0.55997 0.52882,0.55997 0.34216,0 0.41345,-0.0231 0.56198,-0.1819 0.0936,-0.10005 0.18674,-0.24672 0.20708,-0.32595 0.0204,-0.0792 0.0789,-0.16014 0.13023,-0.17982 0.0513,-0.0197 0.0939,-0.0739 0.0947,-0.12054 7.9e-4,-0.0466 0.0597,-0.15917 0.13082,-0.25012 0.0711,-0.091 0.13001,-0.24006 0.13082,-0.33136 7.9e-4,-0.0932 0.0595,-0.20224 0.13376,-0.24861 0.11606,-0.0725 0.13229,-0.0661 0.13229,0.0523 0,0.0742 0.0446,0.15207 0.0992,0.17301 0.0546,0.0209 0.0992,0.10474 0.0992,0.18624 0,0.0815 0.0595,0.2168 0.13229,0.3007 0.0728,0.0839 0.13229,0.17774 0.13229,0.20855 0,0.0308 0.19348,0.056 0.42995,0.056 h 0.42995 l -0.01,0.57878 c -0.005,0.31832 -0.023,0.49023 -0.0389,0.38203 -0.035,-0.2376 -0.25518,-0.47196 -0.50145,-0.53376 -0.0995,-0.025 -0.40683,-0.0242 -0.68304,0.002 -0.41539,0.0389 -0.50791,0.0688 -0.53514,0.17297 -0.0181,0.0693 -0.0717,0.12592 -0.11918,0.12592 -0.0474,0 -0.10586,0.0893 -0.12983,0.19843 -0.024,0.10915 -0.0859,0.19844 -0.13755,0.19844 -0.0517,0 -0.094,0.0456 -0.094,0.1013 0,0.0557 -0.0447,0.11843 -0.0992,0.13936 -0.0566,0.0217 -0.0992,0.12036 -0.0992,0.22944 0,0.131 -0.0332,0.19136 -0.10541,0.19136 -0.058,0 -0.12044,0.0575 -0.13881,0.12772 -0.0184,0.0702 -0.0751,0.14372 -0.1261,0.16328 -0.051,0.0196 -0.0927,0.0812 -0.0927,0.13687 0,0.0557 -0.0278,0.1013 -0.0617,0.1013 -0.0339,0 -0.0827,0.067 -0.10831,0.14883 -0.0256,0.0819 -0.10207,0.21981 -0.16983,0.30657 -0.0678,0.0868 -0.12319,0.25792 -0.12319,0.38034 0,0.15376 -0.0307,0.22259 -0.0992,0.22259 -0.0546,0 -0.0992,0.0446 -0.0992,0.0992 0,0.0546 -0.0595,0.15875 -0.13229,0.23151 l -0.13229,0.13229 z m 8.16901,-2.2434 c -0.14552,-0.0826 -0.35929,-0.19454 -0.47503,-0.24882 -0.11575,-0.0543 -0.22913,-0.1289 -0.25195,-0.16584 -0.0228,-0.0369 -0.11098,-0.0671 -0.19589,-0.0671 -0.0849,0 -0.17151,-0.0446 -0.19246,-0.0992 -0.0209,-0.0546 -0.10128,-0.0992 -0.17854,-0.0992 -0.0773,0 -0.21615,-0.0595 -0.30865,-0.13229 -0.0925,-0.0728 -0.24982,-0.13229 -0.3496,-0.13229 -0.0998,0 -0.21848,-0.0446 -0.26376,-0.0992 -0.0482,-0.0581 -0.19562,-0.1001 -0.35537,-0.10133 -0.15016,-0.001 -0.3308,-0.0458 -0.40142,-0.0992 -0.0814,-0.0616 -0.28118,-0.0971 -0.5457,-0.0971 h -0.41731 v -0.26458 c 0,-0.30225 0.0246,-0.31317 0.29766,-0.13229 0.49102,0.32518 1.02722,0.0482 1.02316,-0.5285 -10e-4,-0.16408 -0.0458,-0.35611 -0.0992,-0.42672 -0.19185,-0.25365 -0.12958,-0.2961 0.38244,-0.26075 0.26376,0.0182 0.63691,0.0791 0.82922,0.13536 0.45269,0.13237 0.75101,0.0759 0.96927,-0.18349 0.17897,-0.2127 0.22442,-0.5684 0.11049,-0.8648 -0.0663,-0.17254 -0.46333,-0.59827 -0.7065,-0.7576 -0.0884,-0.0579 -0.16068,-0.14403 -0.16068,-0.19138 0,-0.0474 -0.0372,-0.10111 -0.0827,-0.11946 -0.0661,-0.0267 -0.0661,-0.0344 0,-0.0386 0.0455,-0.003 0.0827,-0.0499 0.0827,-0.10444 0,-0.0736 0.0774,-0.0992 0.29973,-0.0992 0.20541,0 0.31171,-0.0312 0.3378,-0.0992 0.0212,-0.0553 0.11955,-0.0992 0.22211,-0.0992 0.25843,0 0.46055,-0.18936 0.50614,-0.47418 0.0337,-0.21087 0.0115,-0.26937 -0.16966,-0.44648 -0.15575,-0.15225 -0.27067,-0.20435 -0.45426,-0.20592 -0.13518,-0.001 -0.30355,-0.0458 -0.37417,-0.0992 -0.0706,-0.0534 -0.23581,-0.0971 -0.36711,-0.0971 -0.38535,0 -0.4903,-0.19693 -0.30558,-0.57342 0.214,-0.43617 0.26674,-0.68994 0.28919,-1.39168 0.0217,-0.67701 0.0122,-0.75128 -0.10914,-0.85516 -0.16157,-0.13834 -0.13213,-0.19617 0.16254,-0.3193 0.12485,-0.0522 0.22699,-0.12612 0.22699,-0.16436 0,-0.0382 0.0727,-0.0695 0.16146,-0.0695 0.0888,0 0.18014,-0.0302 0.20296,-0.0671 0.0228,-0.0369 0.1362,-0.1074 0.25195,-0.15659 0.11575,-0.0492 0.29384,-0.16781 0.39576,-0.26358 0.10192,-0.0958 0.24424,-0.17414 0.31627,-0.17414 0.072,0 0.14809,-0.0446 0.16903,-0.0992 0.021,-0.0546 0.0626,-0.0992 0.0925,-0.0992 0.056,0 0.0131,0.16741 -0.1612,0.62839 -0.055,0.14552 -0.10134,0.46232 -0.10294,0.70399 -0.002,0.32762 -0.0281,0.44909 -0.10212,0.47748 -0.0663,0.0254 -0.0992,0.12975 -0.0992,0.31398 0,0.18642 -0.0375,0.30335 -0.11576,0.36055 -0.0934,0.0683 -0.11575,0.18596 -0.11575,0.60917 0,0.46895 0.0175,0.54299 0.16536,0.69872 0.0958,0.10089 0.2385,0.17467 0.33917,0.17533 0.0956,5.3e-4 0.2102,0.045 0.25469,0.0986 0.0445,0.0536 0.18952,0.11712 0.3223,0.14114 0.13277,0.024 0.32177,0.0843 0.42001,0.13404 0.0982,0.0497 0.26195,0.0913 0.3638,0.0925 0.10186,0.001 0.24297,0.0458 0.31359,0.0992 0.0706,0.0534 0.2171,0.0971 0.32552,0.0971 0.10841,0 0.25138,0.0491 0.31771,0.10913 0.0812,0.0734 0.28599,0.11975 0.62635,0.14159 0.59431,0.0381 0.8017,0.16236 0.60293,0.36113 -0.072,0.072 -0.21665,0.11576 -0.38241,0.11576 -0.17602,0 -0.27961,0.0337 -0.30474,0.0992 -0.0245,0.0639 -0.1268,0.0992 -0.28748,0.0992 -0.141,0 -0.2852,0.0431 -0.33175,0.0992 -0.0453,0.0546 -0.16398,0.0992 -0.26376,0.0992 -0.0998,0 -0.2571,0.0595 -0.3496,0.13229 -0.0925,0.0728 -0.24628,0.1323 -0.34173,0.1323 -0.0954,0 -0.19067,0.0446 -0.21162,0.0992 -0.0209,0.0546 -0.10825,0.0992 -0.19403,0.0992 -0.19826,0 -0.2929,0.17696 -0.2929,0.54764 0,0.20775 0.0381,0.32623 0.13229,0.41148 0.0728,0.0658 0.13229,0.14655 0.13229,0.17934 0,0.0328 0.14883,0.20232 0.33073,0.37673 0.1819,0.1744 0.33073,0.34026 0.33073,0.36856 0,0.11145 0.87287,1.06962 1.23109,1.3514 0.098,0.0771 0.16503,0.15328 0.14897,0.16933 -0.053,0.053 -1.32793,-0.15088 -1.40106,-0.22402 -0.0394,-0.0394 -0.13263,-0.0726 -0.20721,-0.0737 -0.0746,-0.001 -0.19337,-0.0458 -0.26399,-0.0992 -0.0706,-0.0534 -0.20457,-0.0973 -0.29766,-0.0976 -0.0931,-2.4e-4 -0.25855,-0.0596 -0.3677,-0.13185 -0.10914,-0.0723 -0.24688,-0.13162 -0.30609,-0.13186 -0.0592,-2.4e-4 -0.14471,-0.0451 -0.19,-0.0997 -0.11851,-0.1428 -1.00895,-0.13915 -1.15283,0.005 -0.23684,0.23685 -0.0336,1.02054 0.26466,1.02054 0.0519,0 0.0944,0.0447 0.0944,0.0992 0,0.0546 0.0414,0.0992 0.0921,0.0992 0.0506,0 0.10985,0.067 0.13161,0.14882 0.0218,0.0819 0.17549,0.29288 0.34161,0.46895 0.37087,0.39306 0.36953,0.53845 -0.003,0.32706 z m 0.16537,0.0804 c -0.0453,-0.0546 -0.12335,-0.0992 -0.17347,-0.0992 -0.0501,0 -0.15065,-0.0595 -0.22341,-0.13229 -0.0728,-0.0728 -0.18864,-0.1323 -0.25751,-0.1323 -0.0689,0 -0.14234,-0.0446 -0.16329,-0.0992 -0.0222,-0.058 -0.12137,-0.0992 -0.23858,-0.0992 -0.13414,0 -0.20052,-0.0328 -0.20052,-0.0992 0,-0.0644 -0.0645,-0.0992 -0.18373,-0.0992 -0.10189,0 -0.2342,-0.0589 -0.29701,-0.13229 -0.0721,-0.0842 -0.19513,-0.13229 -0.33836,-0.13229 -0.13905,0 -0.23963,-0.0379 -0.26315,-0.0992 -0.0267,-0.0696 -0.13528,-0.0992 -0.3638,-0.0992 -0.22852,0 -0.33709,-0.0296 -0.3638,-0.0992 -0.0292,-0.076 -0.15445,-0.0992 -0.53625,-0.0992 h -0.49817 v -0.26458 c 0,-0.29243 0.0752,-0.33274 0.24686,-0.13229 0.0847,0.099 0.19513,0.13229 0.43825,0.13229 0.45489,0 0.63781,-0.19859 0.63781,-0.69243 0,-0.19519 -0.0258,-0.3648 -0.0574,-0.37693 -0.0316,-0.0121 -0.0761,-0.0822 -0.0988,-0.15561 -0.0395,-0.12728 -0.0174,-0.1325 0.47081,-0.11118 0.28174,0.0123 0.60604,0.065 0.72068,0.11702 0.11464,0.0521 0.34303,0.0947 0.50754,0.0947 0.24581,0 0.33537,-0.0363 0.50263,-0.20353 0.17798,-0.17797 0.20353,-0.24924 0.20353,-0.56764 0,-0.31889 -0.029,-0.39956 -0.23375,-0.64938 -0.12856,-0.15689 -0.33672,-0.35538 -0.46257,-0.44108 -0.12585,-0.0857 -0.22902,-0.19055 -0.22927,-0.23299 -2.5e-4,-0.0424 -0.0377,-0.0922 -0.0831,-0.11053 -0.0661,-0.0267 -0.0661,-0.0344 0,-0.0386 0.0455,-0.003 0.0827,-0.0499 0.0827,-0.10444 0,-0.075 0.0808,-0.0992 0.33073,-0.0992 0.24988,0 0.33073,-0.0243 0.33073,-0.0992 0,-0.0682 0.0684,-0.0992 0.21886,-0.0992 0.30887,0 0.44545,-0.12591 0.48904,-0.45084 0.0331,-0.2467 0.0145,-0.30449 -0.15322,-0.4754 -0.14941,-0.15229 -0.25042,-0.19496 -0.46492,-0.1964 -0.18129,-10e-4 -0.28694,-0.0354 -0.31212,-0.10105 -0.0266,-0.0692 -0.1346,-0.0992 -0.35765,-0.0992 -0.17577,0 -0.3553,-0.0357 -0.39895,-0.0794 -0.10997,-0.10997 -0.0993,-0.35087 0.0198,-0.44979 0.0546,-0.0453 0.0992,-0.16435 0.0992,-0.26458 0,-0.10023 0.0404,-0.21576 0.0897,-0.25672 0.10674,-0.0886 0.19938,-1.12094 0.13609,-1.5167 -0.0306,-0.19156 -0.0803,-0.2755 -0.17811,-0.30108 -0.18494,-0.0484 -0.0512,-0.21015 0.21833,-0.26405 0.11519,-0.023 0.19696,-0.0813 0.19696,-0.14027 0,-0.0671 0.064,-0.10087 0.19136,-0.10087 0.10908,0 0.20773,-0.0427 0.22943,-0.0992 0.0209,-0.0546 0.10619,-0.0992 0.18944,-0.0992 0.0884,0 0.23972,-0.0963 0.36384,-0.23151 0.13549,-0.14763 0.27312,-0.23151 0.37988,-0.23151 0.10471,0 0.1674,-0.0372 0.1674,-0.0992 0,-0.0546 0.0277,-0.0992 0.0615,-0.0992 0.0737,0 -0.003,0.28091 -0.15314,0.56224 -0.0709,0.13275 -0.10614,0.36813 -0.10642,0.71107 -2.6e-4,0.41139 -0.02,0.51263 -0.0996,0.51263 -0.075,0 -0.0992,0.0808 -0.0992,0.33073 0,0.23859 -0.0257,0.33073 -0.0921,0.33073 -0.13084,0 -0.17258,0.15019 -0.17154,0.61726 0.001,0.49845 0.0517,0.70566 0.17218,0.70566 0.0503,0 0.0915,0.0446 0.0915,0.0992 0,0.0687 0.069,0.0992 0.22443,0.0992 0.13467,0 0.2391,0.0382 0.26111,0.0956 0.0202,0.0526 0.14986,0.11388 0.2882,0.13627 0.13833,0.0224 0.33053,0.0836 0.42709,0.13594 0.0966,0.0524 0.27895,0.0952 0.40531,0.0952 0.12636,0 0.2668,0.0446 0.31209,0.0992 0.0453,0.0546 0.18704,0.0992 0.315,0.0992 0.14523,0 0.26446,0.0435 0.31729,0.11576 0.0665,0.0909 0.20624,0.12075 0.65222,0.13908 0.41515,0.0171 0.56757,0.0468 0.56757,0.1109 0,0.0482 0.0521,0.1012 0.11576,0.11783 0.11024,0.0288 0.11024,0.0306 0,0.0379 -0.0637,0.004 -0.11576,0.0523 -0.11576,0.10689 0,0.075 -0.0808,0.0992 -0.33073,0.0992 -0.24988,0 -0.33073,0.0243 -0.33073,0.0992 0,0.0736 -0.0774,0.0992 -0.29973,0.0992 -0.20541,0 -0.31171,0.0312 -0.3378,0.0992 -0.0235,0.0612 -0.12404,0.0992 -0.26251,0.0992 -0.13624,0 -0.27642,0.052 -0.35673,0.13229 -0.0735,0.0735 -0.22049,0.1323 -0.33073,0.1323 -0.1284,0 -0.19843,0.0335 -0.19843,0.095 0,0.0589 -0.0818,0.10292 -0.21498,0.11576 -0.21476,0.0207 -0.21499,0.0211 -0.23459,0.43106 -0.0163,0.34147 0.003,0.43305 0.11576,0.5457 0.0744,0.0745 0.13537,0.16607 0.13537,0.20359 0,0.0375 0.0447,0.0854 0.0992,0.1063 0.0546,0.0209 0.0992,0.0795 0.0992,0.13022 0,0.0507 0.0284,0.0921 0.0631,0.0921 0.0719,0 0.39909,0.31248 0.40142,0.38334 8e-4,0.0256 0.10503,0.16151 0.23151,0.30195 0.12649,0.14045 0.22998,0.29672 0.22998,0.34727 0,0.0505 0.0297,0.0919 0.0659,0.0919 0.0363,0 0.20939,0.14882 0.38472,0.33073 0.17533,0.1819 0.35401,0.33072 0.39708,0.33072 0.0431,0 0.0783,0.0303 0.0783,0.0674 0,0.0371 -0.067,0.0522 -0.14883,0.0336 -0.0819,-0.0186 -0.38301,-0.0614 -0.66924,-0.095 -0.28624,-0.0337 -0.55264,-0.0934 -0.59201,-0.13281 -0.0394,-0.0394 -0.1364,-0.0716 -0.21562,-0.0716 -0.0792,0 -0.1811,-0.0446 -0.22638,-0.0992 -0.0453,-0.0546 -0.17833,-0.0992 -0.29564,-0.0992 -0.11835,0 -0.28119,-0.0589 -0.36582,-0.13229 -0.0839,-0.0728 -0.21921,-0.13229 -0.3007,-0.13229 -0.0815,0 -0.16573,-0.0458 -0.1872,-0.10172 -0.032,-0.0834 -0.14947,-0.0983 -0.652,-0.0827 l -0.61297,0.019 -0.0201,0.38883 c -0.0169,0.32757 0.003,0.41354 0.12729,0.5457 0.0811,0.0863 0.18684,0.15688 0.23506,0.15688 0.0482,0 0.0877,0.0447 0.0877,0.0992 0,0.0546 0.0447,0.0992 0.0992,0.0992 0.0546,0 0.0992,0.0581 0.0992,0.1291 0,0.071 0.10418,0.23029 0.23151,0.35395 0.12733,0.12366 0.23151,0.25904 0.23151,0.30084 0,0.0418 0.0446,0.076 0.0992,0.076 0.0551,0 0.0992,0.0588 0.0992,0.13229 0,0.15834 -0.0235,0.1642 -0.13229,0.0331 z"
       inkscape:label="bg" />
    <path
       d="m 106.86391,158.86054 m 2.92938,-2.21622 -0.11111,-0.029 m -8.21059,1.98261 -0.0858,-0.27777 -0.11311,-1.99993 -0.11312,-1.99993 -0.15119,-0.38888 -0.15119,-0.38887 h -0.6338 -0.633806 l -2.162117,0.77277 -2.162119,0.77277 -0.111247,-0.11125 -0.111247,-0.11125 1.016434,-1.05039 1.016434,-1.0504 0.247901,-0.48538 0.247902,-0.48537 v -0.20102 -0.20101 l -1.874483,-0.2916 -1.874483,-0.2916 -0.292108,-0.19286 -0.292108,-0.19286 0.408392,-0.31231 0.40839,-0.31232 1.535986,-0.25907 1.535985,-0.25908 v -0.1965 -0.19649 l -2.12916,-2.21828 -2.129163,-2.21829 0.07559,-0.39838 0.0756,-0.39837 0.944666,-0.0684 0.944665,-0.0684 1.608884,0.44215 1.608883,0.44216 0.444429,0.16757 0.444429,0.16757 -1.277734,-1.38726 -1.277734,-1.38726 v -0.30754 -0.30754 l 0.23195,-0.14335 0.231947,-0.14335 0.268036,0.21245 0.268033,0.21246 2.065526,0.90975 2.065527,0.90975 0.0909,-0.26977 0.0909,-0.26977 0.35115,-2.10023 0.35115,-2.10022 0.0938,-0.0938 0.0938,-0.0938 0.316,0.12126 0.31599,0.12126 1.0821,2.12176 1.0821,2.12176 1.16146,-1.14703 1.16145,-1.14703 0.16087,0.16087 0.16087,0.16087 -0.0611,0.99274 -0.061,0.99274 h 0.36114 0.36114 l 0.60005,-0.31547 0.60006,-0.31547 1.20676,-0.90671 1.20675,-0.90671 h 0.18209 0.18208 v 0.26033 0.26033 l -0.54646,1.36594 -0.54646,1.36593 -0.14256,0.89153 -0.14257,0.89154 2.23529,0.60068 2.23529,0.60068 0.77179,0.32248 0.77179,0.32247 0.14039,0.22715 0.14038,0.22715 -0.29185,0.0926 -0.29185,0.0926 -1.69091,0.35845 -1.69091,0.35846 -0.42013,0.31315 -0.42013,0.31315 2.21451,2.23063 2.21452,2.23064 -0.21459,0.20319 -0.21457,0.20319 -2.31839,-0.76371 -2.31838,-0.76371 -0.28154,0.064 -0.28154,0.064 0.76665,1.21188 0.76665,1.21188 v 0.39917 0.39918 h -0.25831 -0.25831 l -1.02596,-0.65836 -1.02596,-0.65835 -1.52246,-0.69032 -1.52247,-0.69032 -0.16885,0.18205 -0.16884,0.18204 0.2225,1.50062 0.22251,1.50062 -0.14578,0.77708 -0.14578,0.77708 h -0.41839 -0.4184 l -0.43206,-1.16663 -0.43206,-1.16662 -0.15442,-0.49998 -0.15441,-0.49999 h -0.18407 -0.18408 l -0.7451,1.16663 -0.7451,1.16663 -0.74832,0.8333 -0.74831,0.8333 h -0.20333 -0.20333 z m 2.61917,-3.99944 0.7027,-1.05508 0.34097,-5.3e-4 0.34096,-5.3e-4 0.41221,0.69781 0.41221,0.69781 0.30135,1.02435 0.30136,1.02435 -0.14866,-1.33328 -0.14867,-1.33329 -0.017,-0.99997 -0.017,-0.99996 0.77775,0.0612 0.77775,0.0612 1.72216,0.8553 1.72216,0.8553 v -0.17436 -0.17436 l -0.89848,-1.13667 -0.89849,-1.13666 0.10896,-0.1763 0.10896,-0.1763 2.25514,0.75329 2.25514,0.75329 0.12663,-0.12663 0.12663,-0.12662 -1.48114,-1.53419 -1.48113,-1.53419 v -0.32256 -0.32256 l 1.72216,-0.50302 1.72216,-0.50303 0.169,-0.15389 0.16901,-0.15388 -2.16894,-0.62331 -2.16893,-0.6233 -0.36622,-0.19224 -0.36623,-0.19224 0.201,-0.89454 0.20099,-0.89454 0.43772,-1.15201 0.43773,-1.152 -0.0625,-0.0625 -0.0625,-0.0625 -1.18263,0.79642 -1.18263,0.79643 -0.86059,0.11543 -0.8606,0.11543 -0.009,-0.97367 -0.009,-0.97367 -0.93588,1.05733 -0.93587,1.05733 -0.28122,-0.002 -0.28122,-0.002 -0.89525,-1.83201 -0.89526,-1.832 -0.21236,-0.21237 -0.21237,-0.21237 v 0.50056 0.50056 l -0.33976,1.48826 -0.33977,1.48826 -0.1956,0.31381 -0.19561,0.31381 -1.07569,-0.45631 -1.075681,-0.45631 -0.77775,-0.15756 -0.777748,-0.15757 1.193151,1.22278 1.193158,1.22277 -0.13199,0.21355 -0.13198,0.21356 -2.206797,-0.61952 -2.2068,-0.61951 -1.020963,-0.15311 -1.020961,-0.1531 v 0.24678 0.24677 l 1.515845,1.61173 1.515849,1.61172 0.372975,0.54943 0.372975,0.54942 v 0.28068 0.28068 l -1.003742,0.25275 -1.003742,0.25274 -0.101621,0.16443 -0.101621,0.16442 1.660901,0.28411 1.660898,0.2841 v 0.20182 0.20182 l -0.358199,0.71116 -0.3582,0.71116 -0.69732,0.74051 -0.697318,0.7405 1.333286,-0.59577 1.333286,-0.59578 0.615013,-0.22339 0.615006,-0.22339 0.51352,0.12888 0.51352,0.12889 0.26031,0.57132 0.26031,0.57132 0.004,1.93392 0.004,1.93392 0.68191,-1.11107 0.68192,-1.11107 z m -1.03797,-1.4263 -0.14815,-0.14814 v -0.74769 -0.74769 l -0.295,-0.1132 -0.295,-0.1132 -0.63004,0.23954 -0.63005,0.23954 -0.22022,-0.22022 -0.22022,-0.22023 0.59056,-0.77426 0.59056,-0.77426 -1.0008,-0.15008 -1.00079,-0.15008 v -0.30385 -0.30386 l 0.55554,-0.13943 0.55553,-0.13943 -0.008,-0.14257 -0.008,-0.14257 -0.895959,-0.62004 -0.895958,-0.62004 0.09152,-0.26882 0.09153,-0.26882 0.868427,0.003 0.86842,0.003 0.72038,0.1574 0.72038,0.15741 -0.26754,-0.42841 -0.26754,-0.4284 0.16835,-0.16836 0.16836,-0.16836 0.4313,0.26936 0.43131,0.26936 h 0.10304 0.10303 l 0.0666,-1.26018 0.0666,-1.26018 0.25616,-0.0844 0.25615,-0.0844 0.37279,1.12239 0.3728,1.12238 h 0.16869 0.16869 l 0.25882,-0.56807 0.25883,-0.56806 0.23928,0.14788 0.23927,0.14788 -0.13572,0.54074 -0.13571,0.54075 0.61769,-0.39355 0.6177,-0.39355 0.88885,-0.63414 0.88886,-0.63413 0.0692,0.56281 0.0693,0.56282 -0.23592,0.44081 -0.23591,0.44081 v 0.33936 0.33937 l 0.90323,0.24321 0.90323,0.24322 -0.0838,0.25144 -0.0838,0.25145 -0.65275,0.21097 -0.65276,0.21097 -0.0949,0.083 -0.0949,0.083 0.62375,0.65106 0.62376,0.65106 -0.13888,0.36191 -0.13888,0.36191 -0.38997,-0.10702 -0.38997,-0.10703 -0.84798,-0.14334 -0.84799,-0.14333 0.2369,0.44264 0.23689,0.44265 v 0.37171 0.3717 l -0.33332,-0.13488 -0.33332,-0.13488 -0.33332,-0.13489 -0.33333,-0.13488 v 0.91264 0.91263 h -0.35262 -0.35262 l -0.25163,-0.66665 -0.25163,-0.66664 -0.11795,5.3e-4 -0.11794,5.3e-4 -0.63149,0.99956 -0.6315,0.99957 h -0.16477 -0.16477 z m 2.0901,-2.96286 h 0.42832 v -0.44443 -0.44443 h 0.31481 0.3148 l 0.11208,0.27777 0.11208,0.27777 0.0175,-0.5259 0.0175,-0.5259 0.38887,0.1225 0.38888,0.12249 0.55131,0.16498 0.55132,0.16498 -0.39389,-0.60116 -0.39389,-0.60115 0.13346,-0.21594 0.13345,-0.21594 h 0.43132 0.43131 v -0.22221 -0.22222 h -0.19844 -0.19844 l -0.12586,-0.32798 -0.12586,-0.32798 0.30599,-1.01673 0.30599,-1.01673 -0.94959,0.87531 -0.94959,0.8753 -0.4583,0.24527 -0.45831,0.24528 -0.74038,-0.14664 -0.74039,-0.14665 -0.23034,-0.31105 -0.23033,-0.31105 -0.32139,0.81911 -0.32139,0.8191 -1.30529,-0.11836 -1.30528,-0.11836 0.80149,0.54463 0.80149,0.54463 v 0.20316 0.20316 l -0.38887,0.24778 -0.38888,0.24778 0.82924,-0.111 0.82923,-0.111 0.15053,0.24357 0.15054,0.24357 -0.48455,0.39236 -0.48454,0.39237 0.50474,0.0716 0.50474,0.0716 0.0759,0.5377 0.076,0.5377 0.55124,-0.70436 0.55124,-0.70436 z"
       style="display:inline;fill:#f45200;fill-opacity:1;stroke-width:0.264583"
       id="edge"
       inkscape:label="edge" />
  </g>
</svg>
