<?xml version="1.0" encoding="UTF-8" standalone="no"?>
<!-- Created with Inkscape (http://www.inkscape.org/) -->

<svg
   width="25mm"
   height="20.719999mm"
   viewBox="0 0 25 20.719999"
   version="1.1"
   id="svg1"
   xmlns="http://www.w3.org/2000/svg"
   xmlns:svg="http://www.w3.org/2000/svg">
  <defs
     id="defs1" />
  <path
     id="bg"
     style="display:inline;fill:#ffcc00;fill-opacity:1;stroke:#ffcc00;stroke-width:1.32292;stroke-dasharray:none;stroke-opacity:1"
     d="m 10.877193,12.350762 c -0.06298,-0.07359 -0.159937,-0.133719 -0.215456,-0.133719 -0.0555,0 -0.104013,-0.05266 -0.107733,-0.117 -0.01537,-0.26576 0.02295,-0.58958 0.07774,-0.656192 0.03467,-0.04215 0.01051,-0.205749 -0.05924,-0.401167 l -0.117782,-0.329997 -0.38161,-0.02001 c -0.3605226,-0.0189 -0.3816103,-0.02962 -0.3816103,-0.19269 0,-0.110682 -0.084007,-0.251831 -0.2340368,-0.393333 C 9.3287452,9.985264 9.2234281,9.8538497 9.2234281,9.8146003 c 0,-0.04488 0.2081878,-0.071363 0.5615023,-0.071363 0.5157986,0 0.5783846,-0.014758 0.7689826,-0.1820353 0.116235,-0.1019899 0.20748,-0.2479699 0.20748,-0.3319473 0,-0.082481 0.06015,-0.1821161 0.133734,-0.2214767 0.07359,-0.03932 0.133734,-0.1027379 0.133734,-0.1408452 0,-0.038107 0.04519,-0.1145036 0.100484,-0.1697641 0.08936,-0.089355 0.104944,-0.08885 0.140892,0.00505 0.03134,0.081673 0.14362,0.1052649 0.501312,0.1052649 0.253507,0 0.460927,0.02527 0.460927,0.0561 0,0.090871 0.322572,0.2113182 0.566051,0.2113182 0.291548,0 0.436958,-0.05802 0.436958,-0.1743027 0,-0.061861 0.07855,-0.093095 0.234036,-0.093095 0.163455,0 0.234037,-0.030223 0.234037,-0.1002715 0,-0.061861 0.06278,-0.1002715 0.163849,-0.1002715 0.09007,0 0.187909,-0.039826 0.217327,-0.088647 0.02942,-0.048721 0.106125,-0.1079738 0.17049,-0.1316266 0.06439,-0.023653 0.117014,-0.089052 0.117014,-0.1453937 0,-0.056302 0.03761,-0.1029097 0.0836,-0.1035465 0.101941,-0.00101 0.384491,-0.289999 0.384491,-0.3927066 0,-0.040735 0.04519,-0.074193 0.100283,-0.074193 0.127648,0 0.126193,0.061255 -0.0081,0.3298448 -0.140093,0.2807704 -0.09937,0.9273398 0.06409,1.0188376 0.151718,0.084907 0.139415,0.2328988 -0.02285,0.2753322 -0.07359,0.019205 -0.133734,0.082886 -0.133734,0.1415224 0,0.058626 -0.04519,0.1065486 -0.100282,0.1065486 -0.08077,0 -0.100283,0.1040014 -0.100283,0.5348857 0,0.480232 -0.01294,0.534876 -0.126577,0.534876 -0.06965,0 -0.143903,-0.04508 -0.165072,-0.100272 -0.06207,-0.161627 -0.741809,-0.1367 -0.911966,0.03346 -0.07359,0.07359 -0.133734,0.178851 -0.133734,0.234011 0,0.07581 -0.08168,0.100271 -0.33434,0.100271 -0.441031,0 -0.601807,0.151823 -0.601807,0.568313 v 0.300865 h -0.307166 c -0.25093,0 -0.313576,0.02446 -0.342144,0.133719 -0.01921,0.07359 -0.07663,0.133729 -0.127477,0.133729 -0.05085,0 -0.0925,0.04508 -0.0925,0.100272 0,0.05519 -0.05297,0.100272 -0.117651,0.100272 -0.0647,0 -0.155236,0.06014 -0.201172,0.133729 -0.04589,0.07359 -0.106661,0.133719 -0.134957,0.133719 -0.0283,0 -0.102971,-0.06014 -0.165951,-0.133719 z m -1.4531691,5.094754 c 0,-0.816252 -0.026284,-1.350148 -0.068641,-1.39247 -0.037707,-0.0377 -0.086534,-0.231807 -0.1083195,-0.431248 C 9.2252274,15.422366 9.1702334,15.22899 9.1248338,15.192075 9.0794438,15.155185 9.0185664,15.049856 8.9895835,14.958065 8.9291305,14.76668 8.6901305,14.493157 8.5818312,14.491448 8.5415972,14.490913 8.4541527,14.430088 8.387584,14.356577 8.2838743,14.241982 8.1816304,14.222858 7.673009,14.222858 c -0.462099,0 -0.6019469,0.02193 -0.6314868,0.09886 -0.022655,0.05903 -0.1700288,0.116383 -0.3656731,0.14233 -0.2119169,0.0281 -0.3277323,0.07591 -0.3277323,0.135155 0,0.06024 -0.080358,0.09168 -0.2340368,0.09168 -0.1634548,0 -0.2340378,0.03022 -0.2340378,0.100271 0,0.05519 -0.057723,0.100272 -0.1282659,0.100272 -0.1993007,0 -0.3398087,0.07207 -0.3398087,0.174312 0,0.05125 -0.045137,0.09309 -0.100303,0.09309 -0.055166,0 -0.1003029,0.04518 -0.1003029,0.100272 0,0.05691 -0.059967,0.100271 -0.1385124,0.100271 -0.1233629,0 -0.1274986,-0.01102 -0.037818,-0.100676 0.055388,-0.05539 0.1197418,-0.160677 0.1430191,-0.23401 0.023271,-0.07328 0.069015,-0.133325 0.1016525,-0.133325 0.032632,0 0.0787,-0.103223 0.1023662,-0.229371 0.023676,-0.126168 0.08522,-0.245564 0.1367666,-0.265346 0.051557,-0.01981 0.093732,-0.113068 0.093732,-0.207315 0,-0.09421 0.043297,-0.187959 0.096219,-0.208266 0.052921,-0.02032 0.1149369,-0.122145 0.137822,-0.226328 0.022897,-0.104174 0.088283,-0.207316 0.145323,-0.2292 0.083623,-0.03204 0.098645,-0.129645 0.077517,-0.50345 -0.014416,-0.255005 -0.04539,-0.482839 -0.068843,-0.50629 -0.023453,-0.02345 -0.1725509,-0.06004 -0.3313221,-0.08137 -0.1587732,-0.02133 -0.3289061,-0.07894 -0.3780729,-0.128098 -0.065062,-0.0651 -0.338348,-0.09148 -1.0040493,-0.09714 -0.5030593,-0.004 -0.8619976,-0.02153 -0.7976357,-0.03831 0.064355,-0.01678 0.1170184,-0.07348 0.1170184,-0.125956 0,-0.07197 0.097877,-0.09542 0.3978848,-0.09542 0.2730126,0 0.4146659,-0.02962 0.4513571,-0.09451 0.029408,-0.05195 0.1437439,-0.104628 0.2540761,-0.11701 L 4.910466,11.71544 4.930017,11.196262 c 0.01575,-0.418553 -5.358e-4,-0.52685 -0.083582,-0.558751 -0.056723,-0.02173 -0.1031315,-0.114382 -0.1031315,-0.205829 0,-0.110026 -0.045228,-0.178083 -0.1337349,-0.201221 -0.087161,-0.02274 -0.1337359,-0.09117 -0.1337359,-0.196419 0,-0.088849 -0.045137,-0.1787701 -0.1003029,-0.1999363 -0.055166,-0.021227 -0.1003029,-0.073081 -0.1003029,-0.1153729 0,-0.042251 -0.1053161,-0.1735243 -0.2340368,-0.2916567 C 3.912468,9.3089669 3.807152,9.1813027 3.807152,9.1433875 c 0,-0.037905 -0.045137,-0.068937 -0.1003029,-0.068937 -0.055166,0 -0.100303,-0.044677 -0.100303,-0.099261 0,-0.079348 -0.5007696,-0.6139306 -1.2009713,-1.2821211 C 2.2054279,7.502078 2.0178102,7.2739098 1.9801001,7.1756497 1.9575264,7.1168211 1.9080118,7.0686867 1.8700813,7.0686867 c -0.037929,0 -0.068965,-0.028505 -0.068965,-0.063377 0,-0.087738 -0.3009725,-0.4046037 -0.3843588,-0.4046037 -0.037464,0 -0.083855,-0.060143 -0.103092,-0.1337189 -0.032218,-0.1231965 -0.00212,-0.1337291 0.3830456,-0.1337291 0.3330953,0 0.4426036,0.027191 0.5390458,0.1337291 0.094874,0.1048201 0.2059496,0.1337189 0.5139691,0.1337189 0.2875961,0 0.4032609,0.026887 0.431431,0.1002716 0.026799,0.069846 0.1357334,0.1002715 0.3585208,0.1002715 0.2079693,0 0.332237,0.03184 0.3548886,0.09077 0.019177,0.049934 0.1616148,0.1110972 0.3165365,0.1358719 0.1549216,0.024765 0.344738,0.089254 0.4218151,0.1431801 0.077072,0.053977 0.2806733,0.098149 0.4524439,0.098149 0.2159212,0 0.324185,0.030931 0.3507933,0.1002716 0.029792,0.07763 0.1598458,0.1002715 0.5755308,0.1002715 0.4253564,0 0.5370422,0.020216 0.5370422,0.097239 0,0.058424 0.094601,0.115009 0.2371373,0.1417447 0.2639639,0.049529 0.94151,0.0091 1.0110609,-0.060749 0.024565,-0.024563 0.058633,-0.2119753 0.075515,-0.4163897 0.027901,-0.336041 0.017186,-0.3752298 -0.111524,-0.4088794 -0.078245,-0.020418 -0.1423469,-0.088445 -0.1423469,-0.1510845 0,-0.06267 -0.067731,-0.1762333 -0.1504544,-0.2524477 C 7.1095505,6.0889267 6.4818202,5.3980033 6.4818202,5.3336051 c 0,-0.1085803 0.2482664,-0.083088 0.2916508,0.030021 0.022068,0.057515 0.1219022,0.1002715 0.2340368,0.1002715 0.1121377,0 0.2119645,0.042757 0.2340328,0.1002715 0.021229,0.05519 0.1198135,0.1002715 0.2192168,0.1002715 0.099373,0 0.23341,0.04771 0.2978052,0.1059523 0.064395,0.058222 0.2393542,0.1223575 0.3887674,0.1423916 0.1494131,0.020014 0.3058926,0.07763 0.3477141,0.1280585 0.1098358,0.132324 0.7283537,0.1249654 0.7283537,-0.0091 0,-0.05519 0.045188,-0.1002716 0.1002827,-0.1002716 0.055196,0 0.1002827,-0.047912 0.1002827,-0.1064576 0,-0.058525 0.060149,-0.1829551 0.1337339,-0.2764543 0.086231,-0.1095507 0.1337339,-0.2712385 0.1337339,-0.454699 0,-0.1913953 0.032855,-0.2973172 0.1002827,-0.3231937 0.069349,-0.026584 0.1009903,-0.1371456 0.1024258,-0.3581675 0.00101,-0.175829 0.0463,-0.3780904 0.1002827,-0.4494631 0.071775,-0.094914 0.098463,-0.3196761 0.09907,-0.8357612 5.36e-4,-0.3882792 0.01941,-0.7748907 0.04195,-0.8591309 0.04761,-0.1777596 0.180893,-0.1621629 0.213535,0.024967 0.01233,0.070453 0.05934,0.1582613 0.104448,0.1950342 0.04519,0.036793 0.10185,0.1195172 0.126,0.183875 0.02416,0.064388 0.08997,0.1170003 0.1463,0.1170003 0.06925,0 0.102405,0.064995 0.102405,0.2005834 0,0.133719 0.03346,0.2005835 0.100283,0.2005835 0.06692,0 0.100283,0.066915 0.100283,0.200816 0,0.1104503 0.06015,0.3130958 0.133734,0.4503223 0.07359,0.1372163 0.133734,0.2843284 0.133734,0.3269033 0,0.042555 0.04509,0.094712 0.100282,0.1158986 0.0552,0.021126 0.100283,0.08137 0.100283,0.1337189 0,0.05236 0.04509,0.1125528 0.100283,0.133719 0.07076,0.02719 0.100282,0.1376105 0.100282,0.3755431 0,0.2543177 0.03285,0.3651522 0.133744,0.4515454 0.07359,0.062973 0.133734,0.1529444 0.133734,0.1999264 0,0.047002 0.05651,0.085413 0.125546,0.085413 0.06905,0 0.16301,0.045082 0.208794,0.1002715 0.04579,0.05519 0.187191,0.1002715 0.314233,0.1002715 0.267528,0 0.621914,-0.3018658 0.621914,-0.5297409 0,-0.078842 0.04337,-0.1388639 0.100283,-0.1388639 0.0552,0 0.100283,-0.041645 0.100283,-0.092488 0,-0.050843 0.06015,-0.1082265 0.133733,-0.1274621 0.09038,-0.023653 0.133734,-0.091174 0.133734,-0.2083869 0,-0.1059421 0.0373,-0.173403 0.09583,-0.173403 0.05267,0 0.114901,-0.060143 0.138243,-0.133719 0.02335,-0.073586 0.09624,-0.133729 0.161908,-0.133729 0.128295,0 0.429952,-0.2488493 0.49189,-0.4057864 0.02072,-0.052663 0.04013,0.2729064 0.04307,0.7233803 l 0.0051,0.8190324 h 0.568376 c 0.452779,0 0.568377,0.019812 0.568377,0.097239 0,0.058222 -0.09391,0.1148877 -0.234037,0.1411686 -0.134037,0.025169 -0.234037,0.083593 -0.234037,0.1367513 0,0.053977 -0.06864,0.092792 -0.163849,0.092792 -0.09007,0 -0.187908,0.039927 -0.217316,0.088647 -0.02942,0.048721 -0.106136,0.1079739 -0.170491,0.1316266 -0.06439,0.023653 -0.117023,0.089052 -0.117023,0.1453937 0,0.056302 -0.0461,0.1023942 -0.102406,0.1023942 -0.05631,0 -0.119712,0.045082 -0.140881,0.1002716 -0.02123,0.05519 -0.08037,0.1002715 -0.131641,0.1002715 -0.05125,0 -0.0931,0.045082 -0.0931,0.1002715 0,0.05519 -0.04509,0.1002716 -0.100283,0.1002716 -0.0552,0 -0.153972,0.052663 -0.219571,0.1170104 -0.06561,0.064388 -0.219065,0.1531364 -0.341052,0.1972984 l -0.221774,0.080359 0.03012,-0.2808917 C 13.358775,6.5409455 13.125307,6.198779 12.830574,6.198779 c -0.122745,0 -0.197209,0.03467 -0.197209,0.091983 0,0.05054 -0.08947,0.1098236 -0.198816,0.1316872 -0.147098,0.029414 -0.210311,0.088142 -0.243014,0.2256615 -0.02436,0.1022325 -0.08138,0.2310188 -0.126799,0.2861782 -0.04539,0.05519 -0.09917,0.145424 -0.11947,0.2005835 -0.02032,0.05519 -0.03922,-0.02436 -0.04215,-0.1767084 -0.003,-0.1808223 -0.04013,-0.290373 -0.10558,-0.3154914 -0.07471,-0.028707 -0.100283,-0.1476882 -0.100283,-0.4661615 0,-0.3264283 -0.03164,-0.4679102 -0.133733,-0.5976668 -0.0736,-0.093499 -0.133734,-0.1905261 -0.133734,-0.2156041 0,-0.025068 -0.06773,-0.1020707 -0.150455,-0.1710882 -0.187767,-0.1566238 -0.651948,-0.1777394 -0.651948,-0.029617 0,0.060042 -0.06167,0.1002715 -0.153801,0.1002715 -0.272603,0 -0.314283,0.1159592 -0.314283,0.8743738 0,0.5530197 -0.02265,0.7326594 -0.100283,0.7971384 -0.0552,0.045789 -0.1002824,0.1895152 -0.1002824,0.3194235 0,0.2245799 -0.00607,0.2307458 -0.1222903,0.1255314 C 9.7629026,7.312765 9.600479,7.2686233 9.4291897,7.2686233 c -0.3903646,0 -0.6741283,0.260241 -0.6741283,0.6182366 V 8.1378015 L 8.4040113,8.1357799 C 8.2019497,8.1347691 7.9978562,8.0920122 7.9231496,8.0355084 7.7098062,7.8741541 6.6879325,7.9016378 6.3498858,8.077861 l -0.26953,0.1404711 v 0.5281338 c 0,0.4068477 0.021401,0.5281338 0.093146,0.5281338 0.051233,0 0.1104677,0.045183 0.1316352,0.1002715 0.021189,0.05519 0.084573,0.1002715 0.1408912,0.1002715 0.056318,0 0.1029202,0.037602 0.103556,0.083593 0.00131,0.09825 0.2884412,0.3844484 0.3856052,0.3844484 0.036858,0 0.083431,0.042757 0.1035035,0.095117 0.020087,0.05226 0.1057366,0.104961 0.1903532,0.117 0.220814,0.03144 0.2492207,0.255915 0.03245,0.255915 -0.091346,0 -0.2891367,0.08056 -0.4395466,0.179023 -0.2411243,0.157857 -0.2734705,0.209256 -0.2734705,0.434594 0,0.182601 0.028639,0.255571 0.1003029,0.255571 0.070046,0 0.1003029,0.07055 0.1003029,0.234011 v 0.234011 H 7.310303 c 0.43718,0 0.5697311,0.02214 0.5997148,0.100271 0.022442,0.05863 0.1226947,0.100272 0.241184,0.100272 0.1581272,0 0.2027085,0.02941 0.2027085,0.133729 0,0.0941 -0.044581,0.133719 -0.1506768,0.133719 -0.1782848,0 -0.5180026,0.336293 -0.5180026,0.51279 0,0.06803 -0.060149,0.161222 -0.1337339,0.207153 -0.1927207,0.120336 -0.1710164,0.427923 0.049029,0.695705 0.2566408,0.312246 0.2745947,0.320545 0.6960348,0.321697 0.2744127,7.99e-4 0.3878373,-0.02638 0.4158295,-0.09926 0.023959,-0.06237 0.1258791,-0.100272 0.2698434,-0.100272 0.1272539,0 0.2764952,-0.04508 0.3316608,-0.100271 0.055196,-0.05519 0.1626359,-0.100272 0.2388184,-0.100272 0.1284063,0 0.1385054,0.03851 0.1385054,0.52773 0,0.407413 0.022847,0.536503 0.1002827,0.56622 0.069045,0.02648 0.1002827,0.134316 0.1002827,0.345846 0,0.490007 0.071775,0.566019 0.5345923,0.566019 0.345894,0 0.417962,-0.02335 0.568114,-0.183865 0.09462,-0.101131 0.188778,-0.249385 0.20934,-0.329471 0.02062,-0.08005 0.07976,-0.16187 0.131651,-0.181762 0.05186,-0.01991 0.09492,-0.0747 0.09573,-0.121842 7.98e-4,-0.0471 0.06035,-0.16089 0.132247,-0.252822 0.07188,-0.09198 0.131429,-0.242653 0.132248,-0.334939 7.99e-4,-0.09421 0.06015,-0.204425 0.13522,-0.251296 0.117327,-0.07328 0.133734,-0.06681 0.133734,0.05287 0,0.075 0.04509,0.153713 0.100283,0.174879 0.0552,0.02113 0.100282,0.105872 0.100282,0.188252 0,0.08238 0.06015,0.219142 0.133734,0.303948 0.07359,0.08481 0.133734,0.17966 0.133734,0.210803 0,0.03113 0.195592,0.05661 0.434643,0.05661 h 0.434643 l -0.01011,0.585031 c -0.0051,0.321759 -0.02325,0.495526 -0.03932,0.386157 -0.03538,-0.240167 -0.257965,-0.477058 -0.506923,-0.539526 -0.100586,-0.02527 -0.411271,-0.02446 -0.690495,0.002 -0.419924,0.03932 -0.513454,0.06954 -0.540981,0.174838 -0.0183,0.07005 -0.07248,0.127281 -0.120481,0.127281 -0.04792,0 -0.107015,0.09026 -0.131247,0.200573 -0.02426,0.110329 -0.08684,0.200583 -0.139051,0.200583 -0.05226,0 -0.09503,0.04609 -0.09503,0.102395 0,0.0563 -0.04519,0.119709 -0.100283,0.140865 -0.05722,0.02193 -0.100282,0.12166 -0.100282,0.231918 0,0.132415 -0.03356,0.193427 -0.106561,0.193427 -0.05863,0 -0.121754,0.05812 -0.140325,0.1291 -0.0186,0.07096 -0.07592,0.145272 -0.127476,0.165044 -0.05156,0.01981 -0.09371,0.08208 -0.09371,0.138348 0,0.0563 -0.0281,0.102394 -0.06237,0.102394 -0.03427,0 -0.0836,0.06772 -0.109493,0.150438 -0.02588,0.08278 -0.103184,0.222184 -0.171683,0.309881 -0.06854,0.08774 -0.1245351,0.260706 -0.1245351,0.384449 0,0.15542 -0.031035,0.224994 -0.1002827,0.224994 -0.055196,0 -0.1002827,0.04508 -0.1002827,0.100271 0,0.05519 -0.060149,0.160465 -0.1337338,0.234011 L 9.4235892,18.76907 Z m 8.2581701,-2.267632 c -0.147109,-0.08349 -0.363212,-0.196642 -0.480215,-0.251508 -0.117013,-0.05489 -0.231631,-0.130292 -0.2547,-0.167631 -0.02305,-0.0373 -0.112191,-0.06782 -0.198028,-0.06782 -0.08583,0 -0.173382,-0.04508 -0.19456,-0.100272 -0.02113,-0.05519 -0.102386,-0.100271 -0.180489,-0.100271 -0.07814,0 -0.218509,-0.06014 -0.312019,-0.133719 -0.09351,-0.07359 -0.252546,-0.133719 -0.353415,-0.133719 -0.10089,0 -0.220865,-0.04508 -0.266639,-0.100272 -0.04873,-0.05873 -0.197755,-0.101181 -0.359249,-0.102424 -0.151799,-0.001 -0.33441,-0.0463 -0.405801,-0.100272 -0.08229,-0.06227 -0.284249,-0.09815 -0.551656,-0.09815 h -0.421865 v -0.267438 c 0,-0.305515 0.02487,-0.316553 0.300909,-0.133719 0.496379,0.328692 1.038431,0.04872 1.034327,-0.534209 -10e-4,-0.165852 -0.0463,-0.359957 -0.100283,-0.431329 -0.193944,-0.25639 -0.130994,-0.299299 0.386614,-0.263567 0.266639,0.0184 0.643862,0.07996 0.838271,0.136822 0.457631,0.1338 0.759207,0.07672 0.979849,-0.185472 0.180923,-0.214997 0.226869,-0.574539 0.111696,-0.874141 -0.06702,-0.174404 -0.468387,-0.604732 -0.714211,-0.765783 -0.08937,-0.05853 -0.162434,-0.145586 -0.162434,-0.193448 0,-0.04791 -0.03761,-0.102202 -0.0836,-0.12075 -0.06682,-0.02699 -0.06682,-0.03477 0,-0.03902 0.046,-0.003 0.0836,-0.05044 0.0836,-0.105568 0,-0.074395 0.07825,-0.1002717 0.303001,-0.1002717 0.207652,0 0.315113,-0.031537 0.341487,-0.1002715 0.02143,-0.055897 0.120855,-0.1002715 0.224535,-0.1002715 0.26125,0 0.465576,-0.1914054 0.511664,-0.479302 0.03407,-0.2131477 0.01162,-0.2722796 -0.171512,-0.4513027 C 17.430021,8.65889 17.313847,8.6062273 17.128253,8.6046403 16.991598,8.6036295 16.82139,8.5583456 16.749999,8.5043688 c -0.07137,-0.053977 -0.238383,-0.098149 -0.371117,-0.098149 -0.389555,0 -0.495651,-0.1990571 -0.308915,-0.5796139 0.216336,-0.4408814 0.269652,-0.6973925 0.292347,-1.4067125 0.02194,-0.6843228 0.01233,-0.7593951 -0.110332,-0.8643972 -0.163333,-0.1398343 -0.133572,-0.1982889 0.164314,-0.322749 0.126213,-0.052764 0.229468,-0.1274823 0.229468,-0.1661353 0,-0.038613 0.07349,-0.070251 0.163222,-0.070251 0.08977,0 0.182106,-0.030526 0.205175,-0.067825 0.02305,-0.037299 0.137687,-0.1085601 0.2547,-0.1582815 0.117014,-0.049731 0.297047,-0.1696226 0.40008,-0.2664271 0.103032,-0.096835 0.246905,-0.176021 0.319722,-0.176021 0.07278,0 0.149706,-0.045082 0.170874,-0.1002715 0.02123,-0.05519 0.06328,-0.1002715 0.09351,-0.1002715 0.05661,0 0.01324,0.1692183 -0.162959,0.6351776 -0.0556,0.1470919 -0.102446,0.4673139 -0.104064,0.7115943 -0.002,0.3311589 -0.02841,0.453941 -0.103235,0.4826376 -0.06702,0.025674 -0.100282,0.1311515 -0.100282,0.3173715 0,0.1884337 -0.03791,0.3066267 -0.117024,0.3644446 -0.09442,0.069038 -0.117013,0.1879687 -0.117013,0.6157501 0,0.4740154 0.01769,0.5488552 0.167165,0.7062673 0.09685,0.1019798 0.241103,0.1765568 0.342872,0.1772239 0.09664,5.357e-4 0.212494,0.045486 0.257469,0.099665 0.04499,0.054179 0.191589,0.1183851 0.325818,0.1426646 0.134219,0.024259 0.325282,0.085211 0.424594,0.1354878 0.09927,0.050237 0.264809,0.092286 0.367771,0.093499 0.102972,0.00101 0.245622,0.046295 0.317013,0.1002715 0.07137,0.053977 0.219469,0.098149 0.329072,0.098149 0.109594,0 0.254124,0.04963 0.321178,0.1103088 0.08209,0.074193 0.289111,0.1210435 0.633186,0.1431194 0.600797,0.038512 0.81045,0.1641137 0.609511,0.3650308 -0.07279,0.072778 -0.219015,0.1170104 -0.386584,0.1170104 -0.177941,0 -0.282662,0.034064 -0.308066,0.1002715 -0.02477,0.06459 -0.128184,0.1002716 -0.290618,0.1002716 -0.142539,0 -0.288312,0.043565 -0.33537,0.1002715 -0.0458,0.05519 -0.16577,0.1002715 -0.266639,0.1002715 -0.100889,0 -0.259906,0.060143 -0.353416,0.1337184 -0.09351,0.07359 -0.248968,0.133729 -0.34546,0.133729 -0.09644,0 -0.192751,0.04508 -0.213929,0.100272 -0.02113,0.05519 -0.109432,0.100271 -0.196148,0.100271 -0.200424,0 -0.296097,0.178872 -0.296097,0.553556 0,0.209994 0.03852,0.329754 0.133734,0.415925 0.07359,0.06651 0.133734,0.148133 0.133734,0.181277 0,0.03315 0.150454,0.204505 0.33434,0.380799 0.183885,0.176284 0.334339,0.343935 0.334339,0.372541 0,0.112654 0.882397,1.081174 1.244527,1.365998 0.09907,0.07793 0.166831,0.154935 0.150596,0.171159 -0.05358,0.05357 -1.342424,-0.15251 -1.416352,-0.22644 -0.03983,-0.03983 -0.134078,-0.07338 -0.209472,-0.0745 -0.07541,-10e-4 -0.19548,-0.0463 -0.266871,-0.100272 -0.07137,-0.05398 -0.206803,-0.09835 -0.300909,-0.09865 -0.09412,-2.43e-4 -0.261372,-0.06024 -0.371713,-0.133274 -0.110331,-0.07308 -0.249574,-0.133042 -0.309431,-0.133285 -0.05985,-2.42e-4 -0.146289,-0.04559 -0.192073,-0.100777 -0.119804,-0.144342 -1.019962,-0.140653 -1.165413,0.0051 -0.239425,0.239409 -0.03397,1.031564 0.267549,1.031564 0.05247,0 0.09543,0.04518 0.09543,0.100272 0,0.05519 0.04185,0.100271 0.0931,0.100271 0.05115,0 0.111049,0.06772 0.133047,0.150428 0.02204,0.08278 0.177405,0.296043 0.345338,0.474015 0.374918,0.397306 0.373563,0.544266 -0.003,0.330593 z m 0.167175,0.08127 c -0.04579,-0.05519 -0.124697,-0.100271 -0.175364,-0.100271 -0.05065,0 -0.152294,-0.06014 -0.225848,-0.133719 -0.07359,-0.07359 -0.190699,-0.133729 -0.260321,-0.133729 -0.06965,0 -0.143893,-0.04508 -0.165072,-0.100272 -0.02244,-0.05863 -0.122695,-0.100271 -0.241184,-0.100271 -0.135604,0 -0.202708,-0.03315 -0.202708,-0.100272 0,-0.0651 -0.0652,-0.100271 -0.185736,-0.100271 -0.103002,0 -0.236756,-0.05954 -0.300251,-0.133719 -0.07289,-0.08511 -0.19726,-0.133719 -0.342053,-0.133719 -0.140568,0 -0.242246,-0.03831 -0.266022,-0.100272 -0.02699,-0.07035 -0.136757,-0.100271 -0.367771,-0.100271 -0.231014,0 -0.340769,-0.02992 -0.367771,-0.100272 -0.02952,-0.07682 -0.156136,-0.100271 -0.542103,-0.100271 h -0.503607 v -0.267438 c 0,-0.295589 0.07602,-0.336335 0.249554,-0.133719 0.08562,0.100069 0.19726,0.133719 0.443034,0.133719 0.459855,0 0.644771,-0.200735 0.644771,-0.69991 0,-0.197298 -0.02608,-0.36874 -0.05803,-0.381001 -0.03195,-0.01223 -0.07693,-0.08309 -0.09988,-0.157291 -0.03993,-0.128655 -0.01759,-0.133931 0.475949,-0.112381 0.284815,0.01243 0.612654,0.0657 0.728546,0.118284 0.115891,0.05266 0.346774,0.09572 0.513079,0.09572 0.248493,0 0.33903,-0.03669 0.508116,-0.205729 0.179923,-0.179892 0.205751,-0.251932 0.205751,-0.573771 0,-0.322335 -0.02932,-0.403876 -0.236301,-0.656394 -0.129963,-0.158585 -0.340395,-0.359219 -0.467619,-0.445845 -0.127223,-0.08663 -0.231519,-0.192608 -0.231772,-0.235507 -2.53e-4,-0.04286 -0.03811,-0.0932 -0.08401,-0.111724 -0.06682,-0.02699 -0.06682,-0.03477 0,-0.03902 0.046,-0.003 0.0836,-0.05044 0.0836,-0.105569 0,-0.07581 0.08168,-0.1002711 0.334339,-0.1002711 0.252608,0 0.33434,-0.024563 0.33434,-0.1002715 0,-0.068937 0.06915,-0.1002716 0.221249,-0.1002716 0.312241,0 0.450312,-0.12727 0.494378,-0.4557098 C 17.796124,9.0383652 17.777321,8.979951 17.60777,8.8071949 17.456729,8.6532599 17.354617,8.610129 17.137776,8.6086734 16.954507,8.6076626 16.847704,8.572891 16.822249,8.5065319 16.795359,8.4365844 16.68618,8.4062604 16.460696,8.4062604 c -0.177689,0 -0.359178,-0.036086 -0.403305,-0.080258 -0.11117,-0.1111579 -0.100383,-0.35466 0.02002,-0.4546485 0.0552,-0.045789 0.100282,-0.1661252 0.100282,-0.2674379 0,-0.1013127 0.04084,-0.2180906 0.09068,-0.259493 0.107905,-0.089557 0.201556,-1.1330481 0.137576,-1.5330829 -0.03093,-0.1936292 -0.08118,-0.2784759 -0.180054,-0.3043322 -0.186959,-0.048923 -0.05176,-0.21242 0.220713,-0.2669022 0.116447,-0.023249 0.199109,-0.082178 0.199109,-0.1417852 0,-0.067825 0.0647,-0.1019595 0.193449,-0.1019595 0.11027,0 0.209997,-0.043161 0.231934,-0.1002716 0.02113,-0.05519 0.107349,-0.1002715 0.191508,-0.1002715 0.08936,0 0.242336,-0.09734 0.367811,-0.2340107 0.136968,-0.1492246 0.276101,-0.2340107 0.384026,-0.2340107 0.105853,0 0.169227,-0.037602 0.169227,-0.1002715 0,-0.05519 0.028,-0.1002716 0.06217,-0.1002716 0.0745,0 -0.003,0.2839444 -0.154811,0.5683132 -0.07167,0.1341839 -0.107299,0.3721064 -0.107582,0.7187508 -2.63e-4,0.4158337 -0.02022,0.5181672 -0.100687,0.5181672 -0.07582,0 -0.100283,0.081673 -0.100283,0.3343025 0,0.2411672 -0.02598,0.3343024 -0.0931,0.3343024 -0.132268,0 -0.174463,0.1518123 -0.173412,0.6239275 0.001,0.5038341 0.05226,0.7132823 0.174059,0.7132823 0.05085,0 0.0925,0.045082 0.0925,0.1002715 0,0.069442 0.06975,0.1002716 0.226879,0.1002716 0.13614,0 0.24171,0.038613 0.26396,0.096633 0.02042,0.053168 0.151496,0.1151101 0.291346,0.137742 0.13984,0.022642 0.334137,0.084503 0.431751,0.1374083 0.09765,0.052966 0.281995,0.096228 0.409734,0.096228 0.127739,0 0.269712,0.045082 0.315496,0.1002715 0.0458,0.05519 0.189082,0.1002715 0.318438,0.1002715 0.146815,0 0.267347,0.04397 0.320753,0.1170104 0.06723,0.091882 0.208491,0.1220543 0.659339,0.1405823 0.419681,0.017285 0.573765,0.047306 0.573765,0.1120979 0,0.048721 0.05267,0.1022932 0.117023,0.1191028 0.111443,0.029111 0.111443,0.030931 0,0.038309 -0.0644,0.00404 -0.117023,0.052865 -0.117023,0.1080446 0,0.07581 -0.08168,0.1002715 -0.33434,0.1002715 -0.252607,0 -0.33434,0.024563 -0.33434,0.1002715 0,0.074395 -0.07825,0.1002716 -0.303001,0.1002716 -0.207652,0 -0.315112,0.031537 -0.341487,0.1002715 -0.02376,0.061861 -0.125394,0.1002715 -0.265375,0.1002715 -0.137727,0 -0.279437,0.052562 -0.360624,0.1337187 -0.0743,0.07429 -0.222896,0.133729 -0.33434,0.133729 -0.129801,0 -0.200595,0.03386 -0.200595,0.09603 0,0.05954 -0.08269,0.104032 -0.217327,0.117011 -0.217104,0.02092 -0.217336,0.02133 -0.23715,0.435716 -0.01648,0.345158 0.003,0.437727 0.117023,0.551594 0.07521,0.07531 0.136848,0.167864 0.136848,0.205789 0,0.03791 0.04519,0.08632 0.100283,0.107449 0.0552,0.02112 0.100282,0.08036 0.100282,0.131626 0,0.05125 0.02871,0.09309 0.06379,0.09309 0.07269,0 0.403446,0.315855 0.405801,0.387481 8.09e-4,0.02588 0.106177,0.163254 0.234037,0.305211 0.127871,0.141967 0.23249,0.299925 0.23249,0.351021 0,0.05105 0.03002,0.09289 0.06662,0.09289 0.0367,0 0.211676,0.150428 0.388919,0.334303 0.177244,0.183864 0.357874,0.334292 0.401414,0.334292 0.04357,0 0.07916,0.03063 0.07916,0.06813 0,0.0375 -0.06773,0.05276 -0.150454,0.03396 -0.08279,-0.0188 -0.387191,-0.06206 -0.676545,-0.09603 -0.289364,-0.03406 -0.558672,-0.09441 -0.598471,-0.134245 -0.03983,-0.03983 -0.137889,-0.07237 -0.217974,-0.07237 -0.08006,0 -0.183076,-0.04508 -0.22885,-0.100272 -0.0458,-0.05519 -0.180277,-0.100271 -0.298867,-0.100271 -0.119642,0 -0.284259,-0.05954 -0.369813,-0.133719 -0.08482,-0.07359 -0.221602,-0.133719 -0.303982,-0.133719 -0.08239,0 -0.167539,-0.0463 -0.189243,-0.102819 -0.03235,-0.0843 -0.151101,-0.09936 -0.659116,-0.08359 l -0.61966,0.01921 -0.02032,0.39303 c -0.01708,0.331108 0.003,0.418007 0.12868,0.551594 0.08198,0.08723 0.188879,0.158575 0.237625,0.158575 0.04873,0 0.08866,0.04518 0.08866,0.100272 0,0.05519 0.04519,0.100271 0.100283,0.100271 0.0552,0 0.100283,0.05873 0.100283,0.130495 0,0.07177 0.105317,0.232777 0.234036,0.357773 0.12872,0.124996 0.234037,0.261838 0.234037,0.304089 0,0.04225 0.04509,0.07682 0.100283,0.07682 0.0557,0 0.100283,0.05944 0.100283,0.133719 0,0.160051 -0.02376,0.165974 -0.133734,0.03346 z" />
  <path
     d="m 14.147895,20.704614 m 2.961353,-2.240159 -0.112323,-0.02931 M 8.6967215,20.439167 8.6099851,20.158397 8.4956405,18.136864 8.3812859,16.115332 8.2284458,15.722251 8.0756056,15.329181 H 7.4348881 6.7941644 L 4.6084492,16.110298 2.422732,16.891415 2.3102708,16.778963 2.1978096,16.666512 3.2253374,15.604776 4.2528652,14.54303 4.5034718,14.052407 4.7540795,13.561794 V 13.358602 13.155421 L 2.8591377,12.860671 0.96419583,12.565922 0.66889965,12.370978 0.37360346,12.176035 0.78645282,11.860352 1.1993001,11.544658 2.7520505,11.28279 4.3047999,11.020911 V 10.822289 10.623676 L 2.1524014,8.3814351 -1.731128e-7,6.1391838 0.07641485,5.7365006 0.15283998,5.3338275 1.1078164,5.2646887 l 0.9549755,-0.069139 1.626444,0.446926 1.626443,0.4469361 0.4492797,0.16938 L 6.2142382,6.428172 4.9225585,5.0259272 3.6308788,3.6236824 V 3.3128205 3.0019585 L 3.8653604,2.8570601 4.099839,2.7121617 4.3708004,2.9269065 4.6417589,3.1416614 6.7298288,4.0612383 8.8178998,4.9808151 8.9097919,4.7081312 9.0016841,4.4354472 9.3566667,2.3125311 9.7116493,0.18962518 9.806473,0.09481198 9.9012968,-1.2147939e-6 10.220746,0.1225686 l 0.319439,0.12256981 1.09391,2.14467859 1.093911,2.1446786 1.174136,-1.1594198 1.174127,-1.1594199 0.162625,0.1626077 0.162626,0.1626076 -0.06177,1.0034633 -0.06166,1.0034633 h 0.365081 0.365082 l 0.606599,-0.3188776 0.606609,-0.3188776 1.219931,-0.916504 1.219921,-0.916504 h 0.184078 0.184067 v 0.263142 0.263142 l -0.552424,1.3806944 -0.552424,1.3806844 -0.144116,0.90116 -0.144126,0.9011702 2.259686,0.6071684 2.259687,0.6071683 0.780214,0.3259634 0.780213,0.3259532 0.141923,0.2296036 0.141912,0.2296036 -0.295035,0.0936 -0.295036,0.0936 -1.709365,0.3623219 -1.709365,0.362332 -0.424716,0.316533 -0.424715,0.316533 2.23868,2.254724 2.23869,2.254735 -0.216932,0.205385 -0.216912,0.205384 -2.343694,-0.771959 -2.343684,-0.771959 -0.284613,0.06469 -0.284612,0.06469 0.775017,1.224971 0.775018,1.22497 v 0.403482 0.403492 h -0.26113 -0.261129 l -1.037158,-0.665472 -1.037157,-0.665461 -1.539077,-0.697777 -1.539087,-0.697776 -0.170693,0.184016 -0.170683,0.184006 0.224929,1.51683 0.224938,1.516829 -0.147371,0.785474 -0.147371,0.785473 h -0.422956 -0.422967 l -0.436776,-1.179231 -0.436775,-1.179222 -0.156106,-0.50538 -0.156095,-0.505391 h -0.186079 -0.186089 l -0.753232,1.179232 -0.753233,1.179231 -0.7564872,0.842301 -0.7564774,0.842301 H 8.9889162 8.783367 Z m 2.6477565,-4.04264 0.71037,-1.066477 0.344691,-5.36e-4 0.344682,-5.36e-4 0.416709,0.705348 0.416709,0.705347 0.304639,1.035415 0.304649,1.035415 -0.150283,-1.347682 -0.150292,-1.347692 -0.01719,-1.010771 -0.01718,-1.010761 0.786238,0.06186 0.786239,0.06186 1.740956,0.864539 1.740957,0.864538 V 15.770153 15.59391 l -0.908287,-1.148948 -0.908296,-1.148938 0.110149,-0.178205 0.110149,-0.178204 2.279754,0.761427 2.279753,0.761427 0.128012,-0.127998 0.128012,-0.127988 -1.497305,-1.550762 -1.497296,-1.550762 V 10.778915 10.452871 L 20.871972,9.9444175 22.612929,9.435954 22.783773,9.2804017 22.954628,9.1248595 20.762015,8.4948167 18.569413,7.864784 18.199196,7.6704675 17.828968,7.476151 l 0.203194,-0.9042026 0.203184,-0.9042025 0.442497,-1.1644537 0.442508,-1.1644436 -0.06318,-0.063175 -0.06318,-0.063175 -1.195538,0.8050227 -1.195538,0.8050328 -0.869983,0.1166769 -0.869993,0.1166768 -0.0091,-0.9841873 -0.0091,-0.9841873 -0.946095,1.068751 -0.946084,1.0687509 -0.284289,-0.00202 -0.28429,-0.00202 L 11.47896,3.3691929 10.573929,1.5174042 10.359251,1.3027402 10.144563,1.0880763 V 1.5940432 2.1000101 L 9.801095,3.6043458 9.4576166,5.1086815 9.2598817,5.4258812 9.0621368,5.7430809 7.9747062,5.281842 6.8872848,4.8206031 6.1010462,4.6613411 5.3148095,4.5020691 6.520983,5.7380572 7.7271636,6.9740352 7.593733,7.1898919 7.4603126,7.4057587 5.2294297,6.7795469 2.9985438,6.1533451 1.9664376,5.9985813 0.93433342,5.8438275 V 6.0932732 6.3427087 L 2.466723,7.9718481 3.9991165,9.6009774 4.3761623,10.156342 4.7532081,10.711697 v 0.283712 0.283712 l -1.0146972,0.25548 -1.0146972,0.25547 -0.1027302,0.166206 -0.1027301,0.166196 1.6790287,0.287179 1.6790257,0.287168 v 0.204 0.204 l -0.3621085,0.718842 -0.3621095,0.718842 -0.7049309,0.748509 -0.7049288,0.748498 1.347838,-0.602205 1.3478381,-0.602215 0.6217255,-0.225803 0.6217184,-0.225803 0.5191247,0.130272 0.5191248,0.130282 0.2631511,0.577491 0.2631512,0.577491 0.00404,1.95481 0.00404,1.95481 0.6893526,-1.123072 0.6893635,-1.123071 z M 10.295179,14.95482 10.145412,14.80508 V 14.049314 13.293547 L 9.8471927,13.179124 9.5489729,13.064702 8.9120564,13.306829 8.2751298,13.548957 8.0525062,13.326358 7.8298826,13.103749 8.4268883,12.321126 9.0238939,11.538502 8.0121707,11.386801 7.0004577,11.2351 v -0.307132 -0.307142 l 0.5616034,-0.140936 0.5615933,-0.140936 -0.00809,-0.14411 -0.00809,-0.14411 L 7.2017419,9.4239962 6.296005,8.7972587 6.3885239,8.525535 6.4810529,8.2538113 7.3589583,8.2568437 8.2368566,8.2598761 8.9650991,8.4189763 9.6933416,8.5780865 9.4228816,8.145049 9.1524215,7.7120215 9.322609,7.541843 9.4928065,7.3716644 9.9288139,7.6439339 10.364831,7.9162035 h 0.104165 0.104155 l 0.06733,-1.2737921 0.06733,-1.2737921 0.258956,-0.085312 0.258946,-0.085312 0.376859,1.1345137 0.376869,1.1345036 h 0.170531 0.170531 l 0.261645,-0.5742061 0.261655,-0.574196 0.241891,0.1494773 0.241882,0.1494774 -0.137202,0.5465809 -0.137191,0.546591 0.624432,-0.397801 0.624442,-0.397801 0.898551,-0.6409898 0.898561,-0.6409797 0.06996,0.5688893 0.07006,0.5688995 -0.238495,0.4455715 -0.238485,0.4455714 V 8.005123 8.3481588 l 0.913089,0.2458371 0.913088,0.2458472 -0.08471,0.2541559 -0.08471,0.2541661 -0.659875,0.2132489 -0.659884,0.2132488 -0.09594,0.083896 -0.09594,0.083897 0.630558,0.6580922 0.630568,0.658093 -0.140396,0.365819 -0.140396,0.365819 -0.394226,-0.108176 -0.394226,-0.108186 -0.857235,-0.144888 -0.857246,-0.144878 0.239486,0.447421 0.239475,0.447431 v 0.375725 0.375715 L 14.526715,12.994107 14.189757,12.85777 13.852799,12.721423 13.515831,12.585086 v 0.922498 0.922488 h -0.356468 -0.356469 l -0.254376,-0.673851 -0.254377,-0.67384 -0.119237,5.35e-4 -0.119227,5.36e-4 -0.638383,1.010357 -0.638392,1.010367 h -0.166568 -0.166569 z m 2.112913,-2.994864 h 0.432994 v -0.44923 -0.449231 h 0.318246 0.318236 l 0.113304,0.28077 0.113303,0.280771 0.01769,-0.531581 0.01769,-0.531581 0.393114,0.123824 0.393124,0.123813 0.557328,0.166762 0.557337,0.166762 -0.398189,-0.607654 -0.398189,-0.6076431 0.134917,-0.2182725 0.134906,-0.2182725 h 0.436028 0.436017 V 9.2645826 9.0399623 H 15.785344 15.584738 L 15.457505,8.7084395 15.330271,8.3769168 15.639601,7.3492044 15.94893,6.321492 14.988976,7.2062568 14.029022,8.0910115 13.56572,8.3389309 13.102408,8.5868603 12.353947,8.4386363 11.605476,8.2904023 11.372622,7.9759924 11.139778,7.6615825 10.81488,8.4895403 10.489983,9.317488 9.1704461,9.1978495 7.8509198,9.078211 8.6611576,9.6287239 9.4713953,10.179237 v 0.205354 0.205355 l -0.3931142,0.250456 -0.3931244,0.250457 0.8382906,-0.112199 0.8382807,-0.112199 0.152173,0.246201 0.152183,0.246201 -0.489839,0.396598 -0.4898282,0.396608 0.5102492,0.07237 0.510249,0.07237 0.07673,0.543508 0.07683,0.543508 0.557256,-0.711968 0.557257,-0.711969 z"
     style="display:inline;fill:#f45200;fill-opacity:1;stroke-width:0.267456"
     id="edge" />
</svg>
